<?xml version="1.0" standalone="no"?>
<!DOCTYPE svg PUBLIC "-//W3C//DTD SVG 20010904//EN"
 "http://www.w3.org/TR/2001/REC-SVG-20010904/DTD/svg10.dtd">
<svg version="1.0" xmlns="http://www.w3.org/2000/svg"
 width="1440.000000pt" height="384.000000pt" viewBox="0 0 1440.000000 384.000000"
 preserveAspectRatio="xMidYMid meet">

<g transform="translate(0.000000,384.000000) scale(0.100000,-0.100000)"
fill="#000000" stroke="none">
<path d="M0 3705 c0 -74 3 -135 8 -135 4 0 13 -4 21 -9 13 -8 13 -12 0 -27
-13 -16 -12 -16 9 -3 21 13 25 12 38 -5 8 -11 14 -16 14 -12 0 5 11 1 25 -8
14 -9 30 -14 35 -11 6 3 10 -1 10 -9 0 -10 6 -13 16 -9 14 5 15 3 4 -18 -12
-21 -11 -22 2 -12 12 11 18 10 32 -5 9 -10 14 -21 11 -24 -3 -2 5 -4 18 -4 32
1 32 -48 0 -52 -21 -3 -28 7 -24 32 1 5 -5 4 -13 -4 -13 -10 -16 -10 -16 2 0
8 5 19 12 26 9 9 9 12 0 12 -7 0 -15 -7 -18 -15 -4 -8 -11 -15 -16 -15 -6 0
-7 7 -4 16 3 8 2 13 -3 9 -5 -3 -17 -2 -26 1 -12 5 -15 14 -10 33 6 25 6 25
-9 6 -8 -11 -18 -17 -22 -13 -4 4 -1 14 6 23 9 11 9 15 1 15 -6 0 -14 -7 -17
-15 -4 -8 -10 -12 -16 -9 -5 3 -4 13 4 22 12 15 11 16 -5 3 -15 -12 -20 -11
-35 3 -10 9 -22 13 -25 9 -4 -3 -7 -243 -7 -532 l1 -526 24 -18 c14 -10 25
-13 25 -7 0 5 -4 10 -10 10 -5 0 -10 9 -10 20 0 11 7 20 15 20 9 0 12 6 9 15
-4 8 1 17 10 21 9 3 14 10 11 14 -3 5 3 15 13 22 11 7 19 17 19 21 0 5 10 26
22 48 20 35 25 38 44 29 22 -10 22 -10 -1 6 -33 24 -27 37 9 19 20 -11 29 -21
25 -31 -3 -9 -6 -18 -6 -20 0 -2 -12 -2 -27 2 -27 6 -28 6 -8 -10 14 -12 16
-19 7 -22 -6 -3 -12 -14 -12 -25 0 -11 -7 -19 -16 -19 -8 0 -12 -5 -9 -10 12
-19 -17 -42 -44 -35 -24 6 -25 5 -7 -8 19 -14 18 -15 -5 -56 -12 -23 -28 -40
-35 -37 -7 3 -10 -3 -7 -15 4 -15 2 -18 -13 -12 -17 6 -18 5 -4 -12 14 -17 13
-18 -2 -12 -17 6 -18 -49 -18 -1065 0 -995 1 -1072 17 -1083 16 -12 16 -14 0
-38 -12 -18 -17 -47 -17 -92 l0 -65 133 0 c72 0 126 4 119 8 -8 5 -10 16 -5
28 6 16 4 17 -9 6 -25 -20 -51 -4 -43 27 6 24 5 24 -7 8 -15 -20 -48 -14 -48
8 0 27 27 38 60 24 16 -8 30 -18 30 -23 0 -4 6 -3 14 3 12 10 15 6 21 -19 5
-21 12 -30 26 -30 11 0 22 -7 25 -15 4 -8 10 -12 15 -9 5 3 9 0 9 -5 0 -8 230
-11 755 -11 742 0 755 0 775 20 11 11 20 25 20 32 0 9 3 9 12 0 20 -20 32 -13
13 8 -12 13 -14 20 -5 20 8 0 10 8 6 24 -5 21 -3 23 22 19 17 -3 23 -1 15 4
-10 7 -10 13 1 29 12 15 19 17 32 8 10 -6 20 -17 22 -25 4 -11 2 -12 -9 -1 -7
6 -20 12 -28 12 -11 0 -9 -6 9 -20 14 -11 19 -20 13 -20 -7 0 -13 -7 -13 -16
0 -9 -8 -18 -19 -21 -13 -3 -17 -11 -14 -24 3 -11 -1 -21 -11 -25 -45 -17 15
-24 210 -24 212 0 244 5 178 30 -13 5 -24 17 -24 25 0 10 -7 15 -17 13 -14 -2
-17 3 -15 22 3 24 2 24 -13 5 -15 -20 -15 -20 -33 0 -10 11 -24 21 -32 23 -8
2 -20 10 -26 18 -6 7 -16 14 -21 14 -14 0 -34 25 -26 33 3 4 12 -1 20 -11 14
-16 14 -16 8 3 -12 35 -10 39 13 43 13 2 24 -3 28 -13 10 -25 -4 -31 -21 -9
-14 17 -14 17 -3 -9 7 -17 15 -24 21 -18 15 15 37 1 37 -23 0 -17 2 -18 10 -6
7 12 12 11 32 -5 13 -11 26 -24 30 -30 4 -5 8 -6 8 -1 0 4 15 -3 33 -16 42
-32 62 -39 76 -25 8 8 11 7 11 -4 0 -8 -5 -20 -11 -26 -9 -9 -7 -10 10 -6 22
6 30 -12 9 -20 -7 -3 901 -6 2018 -6 1800 -1 2033 1 2044 14 16 19 34 19 50 0
11 -13 58 -15 311 -15 205 0 299 3 299 11 0 6 8 8 19 4 17 -5 19 -2 16 25 -4
32 3 38 24 18 10 -11 11 -10 7 2 -8 22 8 43 30 38 26 -5 27 -54 0 -51 -12 1
-15 -2 -8 -9 6 -6 8 -17 5 -24 -4 -12 538 -14 3576 -14 l3581 0 0 378 c0 227
-4 371 -9 363 -8 -12 -13 -12 -35 2 -14 9 -29 17 -33 17 -4 0 7 -10 24 -21 18
-12 30 -25 27 -30 -4 -6 -11 -6 -19 1 -10 8 -15 8 -20 -1 -4 -6 -1 -15 6 -20
28 -17 -1 -20 -30 -3 -34 20 -42 39 -12 29 21 -6 38 10 21 20 -12 8 -12 16 -1
34 8 13 12 13 27 0 10 -8 15 -9 11 -2 -10 16 2 43 20 43 11 0 13 8 8 32 -5 25
-4 29 4 18 7 -10 11 423 11 1411 l0 1426 -30 6 c-38 8 -38 17 0 57 38 41 41
80 5 80 -14 0 -28 -7 -31 -15 -8 -19 -48 -19 -64 0 -11 13 -205 15 -1634 15
-1593 0 -1621 -1 -1646 -20 -32 -25 -40 -25 -40 0 0 22 -15 27 -24 8 -5 -10
-7 -10 -12 0 -4 9 -73 12 -294 12 -247 0 -289 -2 -294 -15 -3 -8 -12 -15 -20
-15 -9 0 -13 -6 -10 -13 2 -7 -1 -20 -8 -30 -12 -16 -15 -16 -46 3 -29 18 -32
23 -21 37 7 8 22 19 34 23 11 5 -269 9 -622 9 l-642 1 -16 -30 c-9 -16 -20
-30 -25 -30 -6 0 -10 -8 -10 -18 0 -33 -19 -42 -51 -23 -16 9 -29 21 -29 26 0
16 22 35 40 35 9 0 16 9 17 21 2 19 -2 20 -50 15 -29 -3 -56 -5 -62 -4 -5 1
-1381 3 -3057 5 -2438 2 -3048 1 -3048 -9 0 -7 -8 -23 -18 -36 -18 -23 -18
-23 -41 -5 -22 18 -22 20 -6 36 19 19 4 22 -28 6 -16 -9 -22 -9 -25 0 -3 8
-134 11 -489 11 -430 0 -484 -2 -473 -15 10 -12 10 -15 -3 -15 -9 0 -19 5 -22
11 -4 6 -13 8 -21 5 -8 -3 -14 -1 -14 4 0 6 -285 10 -785 10 l-785 0 0 -135z
m2754 100 c8 -8 18 -15 23 -15 24 0 32 -23 17 -51 -16 -33 -18 -33 -45 -19
-23 13 -25 38 -4 46 8 4 15 10 15 15 0 16 -26 10 -45 -11 -26 -28 -30 -17 -9
19 21 35 27 37 48 16z m8396 -6 c14 -25 3 -41 -11 -16 -14 24 -34 21 -47 -8
-10 -21 -9 -27 3 -31 8 -3 19 -3 25 1 5 3 10 -1 10 -9 0 -17 -17 -20 -44 -10
-21 8 -20 52 1 76 22 24 50 23 63 -3z m3144 6 c25 -19 14 -30 -14 -15 -32 17
-39 2 -10 -21 17 -13 21 -21 14 -26 -7 -5 -13 -17 -16 -28 -2 -14 -11 -20 -30
-20 -20 1 -24 -2 -17 -12 6 -6 9 -20 7 -30 -1 -10 1 -24 5 -30 17 -27 -18 -13
-81 33 -9 6 20 44 33 44 9 0 15 10 15 26 0 17 6 28 20 31 11 3 17 9 14 14 -7
12 14 49 29 49 7 0 21 -7 31 -15z m-8649 -9 c18 -13 18 -16 4 -33 -9 -10 -19
-26 -22 -35 -4 -10 -13 -18 -21 -18 -10 0 -13 -6 -10 -15 7 -17 -11 -21 -21
-5 -3 6 -11 10 -17 10 -6 0 -3 -10 8 -22 14 -16 15 -20 4 -16 -12 4 -16 -1
-15 -21 0 -19 -5 -26 -18 -25 -14 2 -15 -1 -6 -12 7 -8 7 -14 1 -14 -5 0 -12
-10 -15 -21 -4 -16 -11 -20 -27 -16 -17 4 -19 3 -9 -9 18 -22 -7 -49 -30 -32
-13 10 -14 10 -3 -2 16 -19 15 -30 -3 -30 -9 0 -12 -6 -8 -17 6 -14 3 -14 -25
3 -40 23 -44 49 -6 40 23 -6 24 -5 14 15 -15 27 -5 36 23 21 l22 -13 -22 19
c-23 20 -20 40 4 21 10 -9 13 -7 13 9 0 23 22 42 28 24 2 -7 9 -12 15 -12 7 1
1 10 -12 21 -13 11 -21 22 -18 26 4 3 13 0 21 -6 12 -10 13 -9 9 9 -4 16 0 23
16 27 11 3 18 9 15 15 -8 13 17 40 31 34 9 -3 11 2 7 16 -3 14 1 26 13 34 11
8 15 14 11 14 -5 0 -3 7 4 15 15 19 21 19 45 1z m5375 -16 c0 -5 -4 -10 -10
-10 -5 0 -10 5 -10 10 0 6 5 10 10 10 6 0 10 -4 10 -10z m-8130 -28 c0 -13
-50 -82 -60 -82 -5 0 -16 7 -25 16 -14 14 -14 19 -1 38 9 13 23 20 40 19 14
-1 26 2 26 8 0 5 5 9 10 9 6 0 10 -3 10 -8z m8310 -7 c10 -12 10 -21 2 -40
-12 -26 -20 -29 -46 -19 -30 12 -13 74 20 74 6 0 17 -7 24 -15z m40 -34 c-20
-40 -40 -61 -40 -42 0 16 41 81 51 81 5 0 0 -18 -11 -39z m1114 15 c8 -14 8
-20 -1 -23 -7 -3 -13 -9 -13 -15 0 -6 6 -6 15 2 19 16 49 -5 40 -29 -3 -9 3
-5 14 9 11 14 23 22 27 18 4 -4 1 -16 -7 -25 -11 -15 -11 -16 1 -5 8 6 21 12
30 11 8 0 10 -3 4 -5 -17 -7 -4 -46 12 -40 8 3 14 1 14 -4 0 -6 7 -10 15 -10
7 0 18 -7 23 -16 5 -9 12 -15 15 -15 19 3 27 0 27 -9 0 -5 -6 -10 -14 -10 -8
0 -17 -7 -20 -15 -5 -14 -9 -14 -36 0 -28 15 -42 45 -20 45 6 0 10 5 10 10 0
6 -12 3 -26 -7 l-27 -17 5 33 5 33 -19 -23 -20 -24 6 24 c4 18 2 21 -7 12 -14
-14 -30 -15 -22 -1 3 6 -3 10 -15 10 -11 0 -23 7 -26 15 -4 8 -14 15 -23 15
-32 0 -40 20 -22 51 18 32 38 34 55 5z m-1053 -42 c-8 -47 -34 -66 -58 -42
-23 24 -3 73 27 65 11 -3 18 -1 14 4 -3 5 1 9 9 9 10 0 12 -9 8 -36z m-8387
20 c23 -9 20 -51 -5 -64 -37 -20 -67 28 -37 58 14 14 20 14 42 6z m4647 -29
c16 -9 27 -20 24 -25 -4 -6 -17 -3 -31 6 -32 22 -46 8 -16 -16 39 -32 24 -42
-17 -11 -20 15 -22 21 -12 39 14 26 14 26 52 7z m3796 -18 c10 -7 9 -16 -4
-41 -9 -17 -18 -26 -20 -19 -2 7 1 21 7 32 8 17 8 21 -4 21 -8 0 -18 -9 -21
-20 -3 -11 -11 -20 -16 -20 -12 0 -11 6 6 41 15 29 22 30 52 6z m2816 -23 c3
-4 2 -15 -4 -25 -6 -13 -6 -19 1 -19 5 0 10 7 10 15 0 8 5 15 10 15 15 0 12
-26 -5 -40 -29 -24 -75 8 -62 44 6 16 38 22 50 10z m-6650 -23 c28 -18 28 -18
9 -41 -23 -29 -46 -18 -39 18 5 24 4 25 -8 9 -9 -12 -15 -14 -20 -7 -6 11 11
40 24 40 3 0 19 -8 34 -19z m6600 -37 c25 -17 36 -31 33 -41 -3 -8 -6 -17 -6
-19 0 -2 -11 -4 -24 -4 -30 0 -50 23 -41 50 4 11 2 20 -4 20 -6 0 -11 5 -11
10 0 16 12 12 53 -16z m-5816 1 c3 -9 2 -19 -2 -23 -4 -4 -10 -1 -12 6 -3 6
-11 12 -18 12 -16 0 -28 -27 -15 -35 4 -3 10 -1 12 4 2 6 18 6 38 2 29 -6 35
-11 32 -32 -1 -17 0 -20 7 -10 11 17 45 6 38 -13 -4 -9 2 -12 19 -8 16 3 26
-1 30 -12 4 -12 10 -13 24 -6 28 15 31 13 24 -15 -5 -19 -3 -24 7 -20 8 3 20
1 28 -4 12 -8 13 -14 3 -35 -6 -14 -16 -26 -22 -26 -7 0 -7 7 0 21 7 11 9 23
6 26 -3 3 -8 -2 -12 -11 -3 -9 -11 -16 -16 -16 -6 0 -7 8 -3 18 5 13 4 14 -6
5 -16 -16 -53 3 -45 23 6 17 -3 44 -15 44 -5 0 -9 -7 -9 -15 0 -8 5 -15 11
-15 5 0 8 -4 4 -10 -8 -13 -35 -1 -35 17 0 8 -4 11 -10 8 -9 -6 -71 32 -78 48
-2 4 -10 7 -17 7 -8 0 -20 7 -29 15 -12 13 -13 21 -4 40 13 28 55 35 65 10z
m-819 -23 c23 -18 23 -18 4 -41 -18 -23 -19 -23 -45 -6 -37 24 -34 39 3 20 36
-19 41 -2 8 26 -30 25 -2 26 30 1z m-3208 -47 c7 -9 10 -19 6 -22 -4 -4 -11
-1 -15 6 -5 7 -14 10 -20 7 -13 -9 -15 -36 -2 -36 5 0 17 -3 27 -7 12 -4 15
-3 10 5 -10 17 19 15 33 -1 8 -10 7 -17 -2 -26 -10 -11 -8 -11 10 0 17 10 24
10 37 0 8 -7 20 -10 26 -6 6 3 10 -3 10 -14 0 -12 -4 -21 -10 -21 -5 0 -10 -7
-10 -15 0 -8 -5 -15 -11 -15 -7 0 -9 10 -5 28 5 22 4 24 -4 10 -13 -21 -36
-23 -47 -5 -4 6 -17 17 -28 24 -11 6 -19 15 -18 20 1 5 -8 9 -20 9 -16 -1 -23
6 -25 22 -6 43 33 67 58 37z m3155 -9 c25 -21 28 -28 19 -43 -13 -20 -44 -30
-44 -14 0 6 7 11 15 11 15 0 22 30 8 30 -5 0 -19 9 -33 20 -17 13 -20 20 -10
20 8 0 29 -11 45 -24z m6663 8 c31 -21 28 -38 -3 -18 -34 22 -47 8 -16 -17 33
-27 19 -36 -18 -12 -29 18 -30 20 -15 41 18 26 23 27 52 6z m-11839 -56 c-11
-51 -26 -63 -31 -25 -2 17 -9 21 -30 19 -16 -1 -28 -1 -28 2 0 10 85 64 92 58
4 -4 2 -28 -3 -54z m11787 1 c48 -29 42 -45 -6 -18 -22 13 -40 26 -40 31 0 12
10 10 46 -13z m-11754 -22 c-5 -20 -4 -21 12 -8 27 22 28 7 1 -19 -14 -13 -28
-21 -31 -17 -9 9 6 78 16 72 4 -3 6 -15 2 -28z m5099 -27 c18 -14 20 -19 9
-20 -9 0 -21 5 -28 12 -6 6 -15 8 -19 4 -5 -4 3 -16 16 -27 27 -22 23 -36 -6
-20 -44 25 -46 28 -34 50 14 26 32 27 62 1z m-5013 -17 c4 -25 -16 -31 -36
-11 -9 9 -12 9 -12 0 0 -6 8 -16 18 -22 15 -9 14 -10 -8 -8 -28 3 -38 31 -19
54 18 22 53 13 57 -13z m5149 -10 l-6 -38 15 28 c8 15 18 27 22 27 16 -1 31
-17 37 -42 4 -16 12 -25 20 -22 7 3 19 -2 28 -10 8 -8 26 -18 41 -22 26 -6 35
-27 16 -39 -5 -3 -10 -12 -10 -18 0 -7 11 2 25 18 13 17 24 26 25 22 0 -14
-30 -67 -39 -67 -18 0 -32 30 -25 52 7 23 6 23 -15 4 -11 -11 -22 -16 -22 -13
-1 4 -2 12 -3 19 0 6 -8 13 -16 15 -13 4 -13 3 0 -6 13 -9 13 -11 -2 -11 -9 0
-21 8 -27 18 -5 9 -12 15 -16 13 -11 -6 -75 33 -75 46 0 7 -9 13 -20 13 -26 0
-25 7 3 31 36 30 50 25 44 -18z m-7179 -30 c-8 -10 -18 -25 -21 -33 -4 -11 -7
-10 -12 7 -4 13 -12 20 -21 16 -20 -7 -17 4 7 39 l22 30 20 -21 c19 -18 19
-22 5 -38z m2060 17 c-13 -22 -29 -40 -36 -40 -14 0 -11 7 20 53 30 42 42 32
16 -13z m5592 18 c36 -21 51 -38 34 -38 -13 0 -84 44 -84 52 0 12 7 10 50 -14z
m-5570 -43 c-12 -19 -26 -35 -31 -35 -14 0 -11 7 18 51 32 49 44 34 13 -16z
m2010 38 c1 -17 1 -17 14 0 16 21 30 23 23 3 -4 -9 -1 -13 6 -11 7 3 18 1 26
-4 11 -7 10 -14 -5 -40 -20 -33 -41 -43 -29 -13 5 13 3 14 -6 5 -9 -9 -15 -8
-26 3 -8 7 -11 18 -8 24 3 5 1 10 -4 10 -6 0 -11 -4 -11 -10 0 -16 -20 -12
-26 5 -9 23 3 45 26 45 12 0 20 -7 20 -17z m1064 -9 c9 -8 13 -20 10 -25 -3
-6 -12 -2 -20 8 -12 16 -15 16 -24 3 -5 -8 -10 -19 -10 -25 0 -5 5 -3 10 5 9
13 12 12 25 -4 8 -11 15 -14 15 -8 0 20 31 14 37 -7 3 -13 11 -17 24 -14 10 3
19 1 19 -3 0 -5 14 -15 30 -22 17 -8 30 -20 30 -28 0 -8 7 -11 18 -8 10 3 3
-7 -16 -25 -18 -18 -38 -29 -44 -25 -6 4 -7 9 0 13 5 3 12 17 16 31 7 24 7 25
-6 3 -10 -17 -17 -19 -30 -12 -20 11 -25 39 -7 39 5 0 7 5 3 11 -4 7 -11 6
-22 -4 -13 -14 -18 -14 -44 -1 -15 8 -28 19 -28 24 0 5 -10 10 -22 12 -29 4
-35 34 -12 59 21 23 28 24 48 3z m8516 -44 c0 -11 -60 -2 -74 11 -6 5 -1 9 13
9 18 0 21 4 16 23 -6 20 -4 20 19 -6 14 -15 26 -32 26 -37z m30 40 c0 -5 -4
-10 -10 -10 -5 0 -10 5 -10 10 0 6 5 10 10 10 6 0 10 -4 10 -10z m-6702 -16
c26 -18 27 -27 6 -48 -14 -14 -18 -14 -39 2 -27 19 -31 32 -13 50 15 15 19 15
46 -4z m657 -6 c14 -6 25 -14 25 -17 -1 -12 -28 -41 -39 -41 -6 0 -11 -11 -11
-24 0 -43 -22 -48 -69 -17 -24 16 -38 32 -33 35 6 3 14 1 17 -4 5 -7 11 -5 19
6 8 11 21 15 34 12 15 -4 21 0 25 18 2 13 0 24 -4 24 -5 0 -9 -8 -9 -17 0 -13
-3 -14 -12 -5 -8 8 -8 15 2 27 15 18 21 19 55 3z m-7611 -13 c3 -8 14 -15 25
-15 10 0 21 -7 25 -15 3 -8 12 -15 20 -15 22 0 28 -17 16 -40 -12 -23 -23 -25
-42 -7 -7 7 -21 16 -30 20 -10 3 -18 13 -18 21 0 9 -7 12 -20 9 -12 -3 -22 1
-26 11 -9 24 3 46 25 46 10 0 21 -7 25 -15z m2093 -10 c2 -11 -4 -28 -11 -38
-12 -15 -18 -16 -35 -7 -24 13 -28 38 -6 46 8 4 12 11 9 16 -4 6 4 8 17 6 15
-2 25 -11 26 -23z m60 -28 c10 -7 9 -15 -3 -38 -8 -16 -19 -29 -24 -29 -14 0
-13 7 6 35 14 22 14 25 1 25 -8 0 -22 -10 -30 -22 -11 -17 -16 -19 -16 -8 -1
9 6 26 15 38 15 21 23 21 51 -1z m4733 14 c0 -5 -10 -12 -22 -16 -15 -4 -19
-8 -10 -12 8 -3 19 0 25 6 16 16 47 14 53 -3 9 -23 -15 -56 -39 -56 -22 0 -22
1 3 20 28 21 22 37 -8 21 -33 -18 -52 -13 -52 12 0 13 3 27 7 30 9 10 43 8 43
-2z m6683 3 c39 -7 51 -24 17 -24 -20 0 -24 -8 -21 -45 1 -17 -2 -15 -24 10
-14 17 -30 38 -36 48 -11 19 -1 21 64 11z m127 -35 c0 -16 3 -18 19 -9 24 12
38 -4 21 -25 -9 -11 -7 -12 10 -8 16 4 23 0 26 -15 4 -13 12 -18 25 -15 24 7
24 -2 -1 -27 -23 -23 -34 -26 -27 -7 4 10 -2 13 -19 9 -23 -4 -30 5 -25 32 1
5 -5 4 -13 -4 -13 -10 -16 -10 -16 4 0 10 -5 14 -10 11 -6 -3 -17 1 -25 9 -14
14 -14 19 0 46 17 33 35 32 35 -1z m-11482 -36 c4 -25 -16 -31 -36 -11 -9 9
-12 9 -12 0 0 -7 7 -15 15 -18 8 -4 13 -10 10 -15 -8 -11 -32 -1 -39 17 -3 9
-1 24 5 35 14 27 53 21 57 -8z m5262 -4 c0 -5 5 -7 11 -4 11 7 69 -13 69 -24
0 -4 -7 -17 -16 -30 -9 -13 -29 -46 -44 -75 -19 -35 -35 -52 -50 -54 -20 -3
-22 0 -18 22 6 29 -8 36 -16 9 -3 -11 -4 -7 -3 7 2 26 22 31 59 15 15 -6 16
-3 5 25 -11 28 -13 29 -24 13 -11 -13 -13 -14 -13 -2 0 8 7 24 14 35 14 18 15
18 27 -14 10 -30 12 -31 24 -15 11 15 10 20 -4 33 -21 20 -44 70 -31 70 6 0
10 -5 10 -11z m-5215 -9 c5 -8 11 -7 21 1 26 21 24 4 -3 -37 -14 -21 -27 -40
-29 -42 -1 -2 -12 1 -23 8 -25 13 -27 37 -4 62 18 21 29 23 38 8z m59 -36 c20
-7 20 -43 2 -67 -12 -16 -17 -17 -35 -5 -29 18 -22 43 11 43 15 -1 24 3 22 7
-3 4 -12 8 -20 8 -8 0 -12 5 -9 10 7 12 8 12 29 4z m9145 -3 c11 -7 10 -14 -5
-40 -19 -33 -29 -38 -39 -21 -3 6 -11 10 -17 10 -6 0 -3 -9 6 -19 17 -18 17
-21 1 -45 -10 -14 -21 -26 -25 -26 -5 0 -7 -14 -5 -31 3 -23 1 -30 -10 -26 -7
3 -16 0 -19 -6 -17 -34 -43 -71 -51 -74 -6 -1 -21 6 -34 16 -17 13 -22 23 -16
39 3 12 11 22 16 22 6 0 7 -9 3 -22 -6 -20 -5 -21 10 -9 9 7 15 19 14 25 -3
21 37 76 56 76 14 0 16 3 8 13 -15 18 2 42 24 33 17 -6 17 -6 1 12 -20 22 -22
38 -5 48 8 5 9 2 4 -11 -5 -15 -4 -16 8 -6 8 7 21 9 28 5 10 -6 10 -4 0 9 -24
29 12 50 47 28z m2390 -18 c6 -10 11 -14 11 -10 0 4 9 3 21 -3 11 -7 18 -17
16 -25 -4 -8 1 -11 12 -8 26 7 47 -23 31 -42 -17 -21 -41 -19 -47 4 -3 13 -10
17 -20 14 -13 -5 -13 -3 -4 15 14 26 4 29 -16 5 -13 -17 -14 -16 -10 4 4 19 3
20 -14 10 -25 -15 -43 7 -28 35 12 23 35 23 48 1z m-4228 -19 c12 -15 11 -16
-11 -9 -22 7 -23 6 -11 -9 12 -15 8 -21 -13 -17 -4 1 -14 -4 -22 -10 -18 -15
-18 -5 1 31 17 34 36 38 56 14z m-7460 -24 c25 -14 24 -24 -6 -54 -14 -14 -25
-32 -25 -41 0 -8 -4 -15 -10 -15 -5 0 -10 -7 -10 -15 0 -18 -5 -19 -33 -4 -21
12 -21 11 -4 -8 19 -21 23 -38 7 -28 -5 3 -8 0 -5 -7 3 -7 0 -20 -5 -28 -8
-12 -13 -13 -30 -2 -26 16 -28 -4 -2 -25 16 -13 15 -14 -5 -10 -25 5 -41 -22
-21 -34 27 -17 -3 -20 -31 -3 -35 21 -39 35 -14 55 15 13 16 12 11 -8 -4 -13
-2 -23 3 -23 5 0 9 3 10 8 2 25 9 46 16 51 4 3 16 22 27 41 10 19 25 40 33 47
8 6 14 14 14 17 -3 20 1 26 15 26 13 0 14 -3 5 -14 -8 -10 -9 -16 -1 -21 22
-13 23 28 2 46 -24 19 -29 34 -9 26 7 -3 19 4 25 14 14 22 17 23 43 9z m1336
-57 l-7 -58 26 42 c14 24 30 41 34 38 9 -5 -24 -70 -40 -80 -14 -9 -38 6 -43
27 -4 15 -11 19 -26 15 -12 -3 -21 -1 -21 3 0 8 70 70 79 70 2 0 1 -26 -2 -57z
m6156 22 c-1 -17 1 -17 19 5 19 25 20 25 15 2 -3 -14 -1 -20 5 -16 7 5 9 -3 4
-22 -6 -28 -6 -28 10 -9 11 14 18 16 21 8 3 -7 11 -13 19 -13 8 0 17 -7 20
-15 6 -14 8 -13 20 2 7 10 14 15 15 11 8 -39 21 -58 39 -58 23 0 32 -13 24
-33 -9 -23 -37 -30 -50 -13 -6 9 -16 16 -23 16 -14 0 -14 13 1 28 8 8 8 12 1
12 -6 0 -14 -7 -17 -16 -5 -14 -10 -13 -39 8 -17 14 -40 27 -49 31 -10 3 -18
13 -18 21 0 10 -6 13 -17 9 -12 -5 -14 -3 -8 7 5 8 4 11 -3 7 -14 -9 -42 2
-42 17 0 18 23 37 40 33 8 -1 14 -11 13 -22z m-2253 -37 c35 -20 51 -38 34
-38 -11 0 -84 45 -84 53 0 11 8 9 50 -15z m-3819 -28 c11 6 19 7 19 1 0 -5 11
-12 25 -15 28 -7 32 -31 10 -59 -17 -24 -55 -14 -55 14 0 14 7 19 28 20 16 1
20 3 10 6 -10 2 -18 9 -18 14 0 6 -13 1 -30 -11 -31 -22 -34 -21 -30 20 3 35
14 49 18 23 3 -19 7 -21 23 -13z m-2031 5 c7 -9 10 -19 6 -22 -4 -4 -11 -1
-16 7 -15 24 -18 7 -3 -20 7 -14 13 -19 13 -12 0 17 29 15 36 -3 4 -8 9 -13
14 -10 4 2 15 -1 25 -9 14 -10 16 -16 6 -34 -6 -12 -16 -22 -22 -22 -6 0 -6 7
1 20 13 25 2 26 -17 3 -13 -17 -14 -16 -10 5 5 19 3 21 -9 11 -11 -9 -18 -8
-32 5 -10 9 -24 16 -30 16 -6 0 -16 9 -22 20 -7 14 -7 20 0 20 5 0 10 -4 10
-10 0 -5 5 -10 10 -10 7 0 7 6 2 18 -19 36 12 58 38 27z m5843 -9 c21 -16 22
-49 2 -66 -18 -15 -70 3 -79 27 -16 41 38 68 77 39z m3475 -52 c-4 -32 -3 -34
9 -18 7 10 13 21 13 26 0 4 5 8 10 8 6 0 10 -7 10 -15 0 -8 14 -21 30 -30 34
-17 37 -32 14 -61 -15 -18 -15 -18 -10 11 6 27 5 28 -7 13 -20 -26 -28 -22
-22 10 5 22 4 24 -5 10 -6 -10 -16 -18 -21 -18 -6 0 -7 4 -4 10 3 5 0 7 -9 4
-9 -3 -20 3 -28 15 -7 12 -22 21 -33 21 -18 1 -17 3 8 25 39 34 50 32 45 -11z
m-9494 3 c15 -11 17 -17 7 -35 -12 -22 -41 -31 -41 -12 0 6 -7 10 -15 10 -15
0 -21 31 -8 43 10 11 38 8 57 -6z m2315 -15 c-8 -3 -22 -14 -31 -26 -26 -32
-33 -11 -8 24 18 26 24 29 37 18 12 -10 13 -13 2 -16z m7015 5 c16 -25 -8 -46
-34 -29 -25 15 -26 5 -2 -21 16 -19 16 -20 -1 -14 -11 4 -16 3 -12 -3 10 -17
-6 -52 -20 -46 -9 3 -12 0 -8 -10 6 -17 -8 -19 -25 -2 -8 8 -12 8 -12 1 0 -6
7 -14 16 -17 8 -3 12 -11 9 -17 -5 -8 -10 -8 -18 0 -21 21 -30 11 -11 -11 16
-18 16 -20 3 -15 -13 4 -16 1 -12 -14 4 -15 0 -22 -16 -26 -11 -3 -19 -9 -16
-13 10 -17 -8 -42 -26 -37 -13 4 -17 1 -12 -6 12 -18 10 -57 -2 -57 -6 0 -16
5 -23 10 -8 7 -9 7 -3 -1 12 -15 3 -39 -14 -39 -8 0 -15 -10 -17 -22 -2 -14
-11 -24 -23 -26 l-20 -3 20 16 c19 16 19 16 -7 10 -15 -4 -32 -4 -37 0 -15 9
5 45 26 45 12 0 13 -3 4 -14 -10 -12 -8 -13 9 -9 16 4 18 8 9 19 -9 11 -8 18
1 29 7 8 16 12 21 9 5 -3 6 1 3 9 -3 8 2 22 11 31 9 9 13 20 10 26 -3 5 3 10
14 10 11 0 23 -4 26 -10 3 -5 11 -10 17 -10 6 0 -1 9 -16 21 -14 11 -26 26
-26 32 0 8 3 8 12 -1 9 -9 14 -6 23 11 6 12 17 21 23 20 6 -2 9 4 6 11 -8 22
26 68 45 61 13 -4 13 -2 -1 9 -25 18 -23 23 12 31 17 4 28 11 24 16 -7 12 35
71 49 66 6 -2 15 -11 21 -20z m-3886 -19 c15 -15 16 -48 2 -48 -5 0 -10 -5
-10 -12 0 -9 3 -9 12 0 17 17 31 15 54 -6 10 -10 24 -20 29 -23 6 -2 9 -7 8
-11 -2 -4 4 -5 12 -2 8 3 25 -5 38 -18 13 -13 29 -22 36 -20 7 2 15 -5 18 -16
3 -11 10 -19 16 -16 23 8 40 -13 33 -40 -9 -36 -30 -34 -22 2 6 24 5 25 -7 10
-17 -21 -31 -24 -24 -5 4 10 -2 13 -19 9 -17 -3 -24 0 -24 11 0 9 -10 17 -22
19 -15 2 -22 9 -22 21 2 13 -3 16 -17 12 -10 -4 -19 -2 -19 4 0 6 -7 8 -16 4
-14 -5 -16 -2 -10 23 7 27 6 28 -7 10 -14 -19 -14 -19 -40 0 -15 10 -27 28
-27 39 0 16 -2 17 -10 5 -17 -27 -22 -2 -5 29 17 34 25 37 43 19z m6285 -8
c-3 -13 0 -20 8 -20 28 0 -7 -18 -48 -25 -34 -5 -43 -3 -52 12 -10 17 -10 16
-11 -4 0 -16 -8 -25 -25 -29 -31 -8 -59 2 -49 17 4 8 3 9 -4 5 -7 -4 -12 -14
-12 -22 0 -19 -17 -18 -29 4 -9 15 -10 14 -11 -7 0 -21 -4 -23 -29 -18 -19 4
-31 2 -34 -6 -10 -28 -18 5 -12 47 7 44 25 64 25 29 0 -10 8 -27 17 -38 15
-19 15 -19 9 13 -3 18 -1 32 4 32 6 0 10 -4 10 -10 0 -5 6 -10 14 -10 8 0 17
-6 19 -12 4 -8 6 -7 6 3 1 26 52 35 69 12 13 -16 14 -16 9 -1 -7 20 -3 23 41
33 27 6 33 3 40 -16 7 -19 10 -20 15 -6 4 10 2 17 -3 17 -6 0 -10 5 -10 10 0
6 11 10 24 10 19 0 23 -4 19 -20z m-11793 -15 c0 -7 9 -17 20 -20 11 -3 20
-11 20 -16 0 -12 -6 -11 -40 6 -21 11 -27 20 -23 35 6 21 23 18 23 -5z m373
-11 c-13 -21 -14 -27 -3 -34 8 -5 19 -3 27 5 16 17 43 9 43 -12 0 -8 5 -11 12
-7 6 4 17 -1 24 -10 7 -10 15 -17 18 -17 20 3 26 -1 26 -14 0 -8 6 -12 13 -9
8 3 20 -2 27 -11 7 -8 18 -15 24 -15 6 0 26 -13 44 -28 24 -20 31 -32 26 -45
-11 -29 -49 -18 -49 14 0 17 -4 25 -12 22 -6 -3 -9 -12 -6 -20 5 -13 3 -13
-13 -4 -45 25 -47 27 -35 50 7 11 8 21 2 21 -5 0 -11 -7 -15 -15 -7 -20 -24
-19 -22 1 0 9 -6 19 -14 21 -13 4 -13 3 0 -7 13 -9 12 -11 -5 -8 -15 3 -20 11
-18 33 2 27 1 28 -11 13 -16 -21 -30 -24 -23 -5 4 10 -2 13 -19 9 -13 -2 -24
0 -24 4 0 5 -13 15 -29 22 l-30 13 21 35 c11 18 24 31 29 28 5 -3 1 -16 -8
-30z m2060 24 c5 -13 -23 -68 -34 -68 -3 0 -14 9 -23 19 -23 26 -11 44 23 37
25 -6 25 -6 7 9 -19 15 -19 15 1 15 12 0 23 -6 26 -12z m7267 -33 c0 -8 -4
-15 -9 -15 -5 0 -13 -9 -16 -21 -5 -14 -10 -18 -17 -11 -7 7 -4 19 7 36 19 29
35 34 35 11z m-7198 -28 c-25 -43 -37 -50 -61 -37 -23 12 -26 23 -11 50 8 14
20 19 49 17 l40 -1 -17 -29z m8138 -34 c0 -7 -4 -13 -10 -13 -5 0 -10 7 -10
15 0 8 -8 15 -17 15 -13 0 -14 -3 -5 -12 16 -16 -4 -51 -26 -44 -15 5 -15 4 1
-8 19 -15 23 -36 6 -36 -6 0 -17 -7 -26 -15 -8 -8 -18 -13 -22 -11 -4 3 -7 -5
-7 -17 1 -14 -6 -23 -19 -25 -16 -3 -18 -1 -7 9 10 11 7 17 -15 36 -19 15 -23
22 -12 23 8 0 21 -6 28 -12 10 -11 11 -10 6 5 -8 20 5 23 23 5 9 -9 12 -9 12
0 0 7 -7 15 -15 18 -21 9 -19 27 3 20 14 -5 14 -4 -2 9 -11 8 -17 18 -13 21 4
4 13 1 22 -6 13 -11 14 -10 9 4 -7 17 11 23 21 6 3 -5 11 -10 17 -10 6 0 3 9
-8 21 -18 20 -18 22 -1 34 9 6 17 18 17 26 1 17 50 -41 50 -58z m-10636 34
c15 -11 17 -17 7 -35 -13 -25 -28 -27 -53 -8 -46 35 0 77 46 43z m9725 4 c20
-13 6 -42 -16 -36 -10 3 -8 0 5 -6 23 -12 30 -29 12 -29 -5 0 -10 5 -10 10 0
6 -7 10 -15 10 -21 0 -30 27 -15 45 14 17 20 18 39 6z m1691 -47 c0 -19 -4
-34 -10 -34 -21 0 -25 2 -22 12 2 6 -4 8 -13 4 -8 -3 -22 -9 -30 -12 -10 -4
-19 2 -25 17 l-11 24 5 -23 c4 -19 1 -22 -15 -17 -10 4 -19 2 -19 -3 0 -8 -40
-25 -46 -19 -1 1 -5 19 -9 40 -7 35 -6 37 18 37 14 0 31 -8 37 -17 10 -16 11
-15 7 5 -3 12 -1 22 4 22 5 0 9 -4 9 -10 0 -5 13 -7 29 -4 23 5 30 2 34 -12 4
-16 5 -16 6 3 1 20 26 35 44 26 4 -2 7 -20 7 -39z m-8876 20 c20 -20 20 -29 0
-49 -35 -35 -82 8 -50 44 23 25 30 26 50 5z m-2598 -25 c36 -22 42 -37 22 -57
-15 -15 -38 -16 -38 -2 0 6 7 10 15 10 24 0 17 18 -15 37 -16 9 -30 21 -30 25
0 12 10 10 46 -13z m9883 12 c8 -5 12 -18 8 -30 -3 -12 -2 -19 3 -16 13 8 70
-25 70 -41 0 -8 5 -12 10 -9 6 3 10 1 10 -4 0 -6 3 -10 8 -9 4 1 24 -7 45 -17
40 -20 47 -44 20 -66 -15 -13 -16 -11 -10 16 7 27 6 28 -6 13 -17 -21 -31 -24
-24 -4 4 10 0 12 -14 9 -10 -3 -19 0 -19 6 0 6 -6 10 -12 9 -7 -2 -12 4 -10
13 2 12 -4 15 -23 11 -29 -5 -44 20 -25 43 9 11 9 15 1 15 -6 0 -14 -7 -17
-15 -4 -8 -11 -15 -16 -15 -6 0 -8 6 -5 13 4 10 -2 13 -19 9 -31 -6 -41 20
-20 53 18 27 24 29 45 16z m-8491 -28 c2 -13 0 -23 -5 -24 -42 -4 -54 -7 -60
-12 -3 -4 -3 -10 2 -14 4 -5 10 -2 12 5 6 17 23 15 23 -3 0 -9 -7 -18 -15 -21
-8 -4 -15 -14 -15 -24 0 -22 -22 -39 -28 -22 -2 7 -10 12 -19 12 -8 0 -13 7
-11 18 2 10 12 17 26 16 17 0 19 2 10 13 -8 10 -7 18 4 31 8 9 18 25 21 35 10
27 51 18 55 -10z m10761 18 c8 -5 12 -18 9 -29 -4 -15 -1 -18 14 -14 14 3 21
-2 25 -18 6 -22 7 -22 19 -5 21 29 29 9 9 -22 l-18 -28 25 23 c36 33 43 27 13
-13 -24 -30 -29 -33 -42 -20 -8 8 -12 19 -9 23 3 5 -6 7 -19 4 -23 -4 -31 5
-26 31 1 5 -3 6 -9 2 -13 -8 -50 3 -50 16 0 13 30 59 39 59 3 0 12 -4 20 -9z
m-3495 -26 c17 -17 11 -45 -10 -45 -8 0 -11 -6 -8 -15 9 -22 -7 -18 -40 10
-31 27 -28 32 7 13 20 -10 21 -10 8 5 -11 14 -11 20 -1 32 16 19 25 19 44 0z
m-2029 -29 c17 -12 17 -16 6 -30 -8 -9 -21 -14 -29 -11 -12 4 -13 3 -3 -9 14
-17 7 -36 -14 -36 -9 0 -12 -6 -9 -15 7 -18 -7 -20 -24 -3 -9 9 -12 9 -12 0 0
-7 7 -15 15 -18 8 -4 12 -10 9 -16 -3 -5 -13 -4 -22 4 -15 11 -15 11 -4 -3 14
-18 6 -49 -12 -49 -17 1 -50 29 -43 37 4 4 13 1 19 -5 20 -20 32 -13 13 8 -13
14 -14 20 -5 20 7 0 10 3 7 6 -10 11 13 46 27 41 9 -4 11 2 8 19 -3 18 0 24
12 24 10 0 14 5 11 10 -7 11 11 40 24 40 4 0 16 -6 26 -14z m-6690 -36 c-3 -5
4 -14 15 -20 19 -10 28 -30 13 -30 -21 1 -53 37 -47 53 3 9 10 14 15 11 5 -3
7 -9 4 -14z m8660 4 c24 -16 37 -42 13 -28 -6 4 -8 3 -5 -4 10 -15 -3 -42 -19
-42 -7 0 -11 -6 -8 -13 6 -16 -23 -43 -33 -33 -4 4 -2 11 5 15 10 6 6 13 -14
26 l-28 18 23 9 c13 5 33 6 45 3 20 -6 20 -5 4 8 -10 8 -18 18 -18 22 0 4 8 4
18 1 10 -4 7 2 -8 14 -30 23 -10 27 25 4z m-3554 -37 c99 -53 130 -167 74
-277 -28 -54 -143 -180 -165 -180 -7 0 -41 29 -76 64 -79 79 -114 149 -114
227 0 145 151 234 281 166z m7225 7 c-5 -14 -4 -15 9 -4 8 7 15 8 15 2 0 -5
10 -12 21 -15 16 -4 20 -11 16 -26 -4 -17 -2 -18 14 -8 28 18 35 0 8 -22 -13
-11 -25 -15 -27 -10 -2 5 -9 9 -17 9 -19 0 -39 27 -25 35 5 3 10 11 10 17 0 6
-9 3 -20 -7 -11 -10 -23 -15 -26 -12 -10 9 5 57 17 57 6 0 8 -7 5 -16z
m-12335 -14 c23 -13 25 -55 3 -64 -36 -14 -74 32 -48 59 18 18 20 18 45 5z
m1367 -27 c2 -16 -2 -23 -12 -23 -9 0 -16 -8 -16 -17 0 -39 -15 -47 -49 -27
-35 21 -36 23 -17 50 12 15 17 17 27 7 18 -18 34 -16 19 2 -16 19 -3 37 23 33
14 -2 23 -11 25 -25z m1303 17 c23 -13 25 -38 4 -46 -8 -4 -12 -11 -8 -17 4
-6 -2 -8 -17 -4 -17 4 -20 3 -11 -6 14 -14 15 -30 1 -22 -5 3 -8 0 -5 -7 3 -7
-4 -25 -16 -40 -18 -22 -26 -25 -43 -17 -20 10 -20 10 -2 -5 27 -21 11 -34
-19 -16 -21 13 -31 39 -13 33 4 -2 5 4 2 12 -8 20 15 19 38 -2 10 -9 18 -11
18 -5 0 6 -7 15 -15 20 -24 13 -8 45 19 38 19 -5 19 -3 -4 14 -14 10 -22 22
-18 26 4 4 16 1 25 -7 15 -11 16 -11 6 1 -22 24 -14 33 12 16 14 -9 25 -12 25
-7 0 5 -5 11 -12 13 -6 2 -9 12 -5 21 7 20 12 21 38 7z m-2731 -50 c0 -5 11
-12 25 -16 25 -6 32 -18 16 -28 -4 -3 -17 1 -27 9 -24 18 -35 19 -28 1 3 -7
-2 -16 -11 -20 -21 -8 -10 -26 15 -26 13 0 17 5 14 15 -4 8 -1 15 6 15 22 0 6
-45 -18 -48 -22 -3 -53 -42 -32 -42 5 0 10 7 10 15 0 8 5 15 10 15 14 0 13
-23 -2 -38 -29 -29 -65 -7 -72 44 -2 16 -2 24 1 18 8 -21 43 -3 43 22 0 12 5
26 10 29 6 3 10 15 10 26 0 10 7 19 15 19 8 0 15 -4 15 -10z m6597 -40 c-3
-11 -1 -20 4 -20 5 0 9 5 9 10 0 6 5 10 11 10 6 0 8 -7 5 -17 -4 -9 -1 -20 6
-24 27 -17 -3 -20 -31 -3 -33 20 -38 33 -19 52 17 17 21 15 15 -8z m2049 -6
c-3 -8 -2 -12 4 -9 6 3 10 -1 10 -9 0 -9 -3 -16 -8 -16 -4 0 -12 -10 -17 -22
-10 -22 -54 -38 -56 -21 -9 62 -8 64 13 57 14 -4 18 -2 14 5 -10 16 2 31 26
31 14 0 18 -5 14 -16z m2615 -4 c19 -11 19 -12 2 -40 -9 -17 -23 -30 -30 -30
-7 0 -10 -6 -7 -13 2 -7 -7 -26 -21 -41 -14 -15 -25 -34 -25 -42 0 -16 -27
-30 -38 -20 -3 4 0 11 8 17 11 7 8 8 -11 3 -29 -6 -42 6 -33 30 7 17 34 22 34
6 0 -5 -5 -10 -12 -10 -6 0 -9 -3 -5 -6 3 -3 16 1 29 10 12 9 17 16 10 16 -18
0 -15 30 4 37 12 4 13 8 3 13 -9 6 -8 12 5 26 15 14 22 15 37 6 26 -17 38 -14
15 3 -11 8 -16 21 -13 30 7 18 21 19 48 5z m-9910 -27 c13 -15 11 -16 -16 -9
-29 7 -29 7 -10 -9 14 -11 16 -18 8 -21 -7 -3 -13 -14 -13 -25 0 -16 -9 -23
-30 -21 -3 0 -6 -11 -5 -26 0 -33 -22 -38 -55 -13 -20 16 -22 21 -11 35 7 9
22 16 32 16 11 0 18 3 18 8 -3 20 3 32 17 32 8 0 13 4 10 9 -10 16 5 41 24 41
10 0 24 -7 31 -17z m-1217 -67 c-6 -21 -6 -21 9 -1 9 11 19 17 23 13 4 -4 13
-3 21 3 17 15 18 -11 1 -31 -7 -8 -2 -6 11 5 l24 20 -7 -21 c-5 -17 -3 -22 11
-20 24 2 31 -49 8 -58 -23 -8 -35 1 -36 27 0 12 -3 16 -6 10 -2 -7 -9 -13 -15
-13 -6 0 -7 7 -4 16 3 8 2 12 -3 9 -14 -8 -61 16 -61 31 0 7 -10 14 -22 16
-13 2 -24 11 -27 23 -3 17 -1 18 13 6 15 -12 19 -11 33 9 l16 23 9 -23 c5 -13
6 -32 2 -44z m1862 12 c5 -8 -2 -9 -22 -4 -26 6 -27 5 -11 -7 21 -17 23 -31 2
-24 -8 4 -17 1 -21 -5 -4 -7 -3 -8 4 -4 7 4 12 1 12 -8 0 -8 -8 -20 -17 -25
-10 -6 -14 -11 -10 -11 4 0 3 -9 -3 -21 -8 -13 -18 -18 -28 -15 -15 5 -15 4 1
-8 9 -7 17 -16 17 -18 0 -6 -40 -21 -51 -20 -3 1 -5 -9 -5 -21 1 -17 -5 -22
-21 -21 -13 0 -21 -2 -18 -4 3 -3 -1 -12 -8 -21 -11 -14 -10 -14 6 -2 15 11
17 11 17 -2 0 -8 -7 -17 -15 -21 -8 -3 -15 -12 -15 -21 0 -9 -9 -15 -22 -15
-18 0 -20 -2 -8 -10 28 -18 1 -22 -29 -4 -38 23 -39 34 -4 34 21 0 24 3 15 12
-22 22 -13 31 13 14 25 -17 26 -17 13 4 -11 18 -10 23 5 34 9 7 17 19 17 27 0
10 3 10 12 1 20 -20 32 -13 13 8 -10 11 -13 20 -8 20 6 0 14 12 17 26 5 17 12
24 21 20 10 -3 12 0 8 11 -5 13 -3 14 15 4 12 -7 22 -8 22 -2 0 5 -7 12 -16
15 -8 3 -12 10 -9 16 4 6 11 7 17 4 6 -4 6 1 -1 14 -16 30 -13 41 9 35 13 -4
20 0 20 9 0 37 45 41 66 6z m7270 18 c12 -13 11 -20 -11 -53 -34 -49 -30 -46
-53 -34 -27 14 -28 74 -2 66 12 -4 19 1 23 15 6 24 23 26 43 6z m-2672 -2 c27
-10 18 -25 -11 -18 -26 6 -26 5 -10 -8 16 -12 17 -17 6 -42 -9 -19 -18 -26
-31 -23 -20 6 -25 -9 -5 -16 9 -3 8 -9 -5 -22 -14 -15 -20 -16 -32 -5 -20 16
-21 39 -2 46 15 6 16 21 3 41 -4 6 -3 14 2 17 5 4 11 0 14 -6 2 -8 10 -1 17
15 13 27 25 32 54 21z m-4328 -46 c-9 -54 -17 -66 -28 -39 -6 19 -13 22 -33
17 -14 -4 -25 -3 -25 2 0 10 70 62 84 62 5 0 6 -19 2 -42z m-2351 10 c39 -26
46 -43 14 -33 -29 10 -43 -14 -22 -37 23 -26 -1 -23 -42 5 -35 24 -38 45 -5
27 13 -7 20 -5 24 7 4 9 2 21 -4 27 -11 11 -14 26 -5 26 3 0 21 -10 40 -22z
m8645 7 c35 -18 36 -23 13 -41 -25 -18 -28 -18 -41 11 -22 48 -17 53 28 30z
m-3160 -20 c7 -9 10 -19 6 -22 -4 -4 -11 -1 -15 6 -11 17 -31 6 -31 -17 0 -15
2 -15 10 -2 9 13 12 12 25 -4 8 -11 15 -14 15 -8 0 16 29 15 36 -1 3 -8 20
-20 39 -27 35 -14 40 -24 29 -54 -7 -19 -25 -21 -42 -4 -8 8 -9 15 0 25 6 7 8
16 4 20 -3 4 -12 -2 -19 -12 -13 -17 -15 -17 -40 0 -15 9 -27 21 -27 25 0 5
-10 10 -22 12 -26 3 -36 41 -18 64 16 18 34 18 50 -1z m-3103 -30 c-4 -25 -4
-25 14 -9 11 10 22 14 26 10 9 -9 -36 -45 -56 -46 -8 0 -11 6 -7 16 3 9 6 24
6 35 0 10 5 19 11 19 7 0 9 -10 6 -25z m6232 -9 c18 -13 28 -27 23 -30 -5 -3
-17 1 -28 8 -10 8 -24 12 -31 9 -15 -6 -16 -2 -7 21 8 20 4 20 43 -8z m669
-44 c-5 -25 -41 -26 -62 -3 -15 17 -16 23 -6 36 11 13 15 13 42 -1 18 -9 28
-22 26 -32z m-8873 1 c-6 -34 -5 -36 7 -19 12 16 16 16 29 4 8 -8 22 -17 33
-21 10 -4 16 -13 13 -21 -4 -10 0 -12 14 -9 13 4 22 -2 28 -18 5 -13 10 -18
10 -12 1 9 11 8 36 -5 34 -17 44 -35 25 -47 -5 -3 -10 -12 -10 -18 0 -7 11 2
25 18 26 32 33 28 13 -8 -10 -20 -10 -21 5 -9 13 11 19 10 34 -5 10 -10 25
-18 33 -18 9 0 15 -9 15 -25 0 -18 -6 -26 -22 -28 -18 -3 -23 2 -23 20 0 18
-2 20 -10 8 -14 -22 -23 -5 -10 19 13 25 2 28 -15 5 -11 -15 -14 -15 -39 1
-20 13 -25 23 -20 39 5 17 4 19 -7 9 -20 -20 -31 -15 -19 7 13 25 2 26 -16 3
-13 -17 -13 -17 -14 -1 0 12 -5 15 -16 11 -10 -4 -17 2 -21 16 -5 20 -7 20
-22 7 -27 -24 -46 -5 -33 33 11 32 -1 45 -13 14 -6 -16 -9 -14 -30 11 -12 16
-28 25 -34 22 -24 -15 -10 13 17 33 39 29 45 26 37 -16z m2055 22 c7 -8 10
-22 6 -30 -4 -13 -10 -14 -26 -5 -12 6 -20 7 -20 1 0 -5 6 -11 13 -14 6 -2 9
-7 6 -11 -12 -13 -39 7 -39 28 0 41 36 60 60 31z m29 -44 c-21 -37 -39 -53
-39 -33 0 13 51 84 57 78 3 -2 -5 -23 -18 -45z m51 24 c0 -14 -55 -86 -58 -76
-4 13 36 81 49 81 5 0 9 -2 9 -5z m4038 -7 c14 -14 16 -54 4 -62 -7 -4 -72 31
-72 39 0 2 7 11 16 19 19 19 36 20 52 4z m-6635 -16 c15 -10 24 -22 20 -25 -3
-4 -16 -1 -29 7 -21 14 -34 12 -34 -5 0 -4 9 -11 20 -14 11 -3 20 -11 20 -16
0 -14 -16 -11 -40 9 -19 16 -21 22 -11 40 14 27 18 27 54 4z m9274 -3 c3 -12
11 -18 19 -15 18 7 18 -5 0 -30 -12 -16 -15 -16 -19 -4 -18 56 -19 57 -26 36
-6 -14 -10 -16 -15 -7 -11 17 0 41 20 41 9 0 18 -9 21 -21z m-10009 -1 c32
-32 -4 -66 -38 -35 -7 6 -4 -2 8 -20 12 -17 22 -37 22 -45 0 -9 -3 -9 -8 -2
-4 6 -18 15 -32 19 -23 6 -23 6 -7 -7 11 -8 16 -20 11 -31 -8 -22 -34 -22 -34
1 0 14 -2 15 -10 2 -8 -12 -10 -11 -10 6 0 11 9 30 20 42 11 12 20 25 20 29 0
12 30 53 39 53 4 0 12 -5 19 -12z m6428 -21 c21 8 17 -6 -8 -28 -37 -30 -48
-24 -29 17 10 22 17 30 19 21 2 -9 9 -14 18 -10z m-3068 1 c16 -16 15 -29 -6
-56 l-18 -23 -22 21 c-27 25 -19 44 14 37 13 -2 24 0 24 4 0 5 -7 9 -15 9 -8
0 -15 5 -15 10 0 14 23 13 38 -2z m-2664 -39 c21 -10 23 -14 13 -36 -14 -32
-42 -26 -42 9 1 15 -3 24 -7 22 -4 -3 -8 -13 -8 -22 0 -11 -3 -13 -10 -6 -13
13 -2 44 16 44 7 0 24 -5 38 -11z m2720 5 c20 -8 20 -33 1 -58 -19 -25 -30
-14 -15 14 17 32 2 39 -20 10 -24 -32 -37 -20 -15 14 18 27 24 30 49 20z
m9426 -6 c0 -28 -21 -88 -31 -88 -5 0 -9 8 -7 18 2 13 -3 17 -24 15 -36 -2
-35 6 4 39 36 30 58 36 58 16z m-176 -19 c23 -11 24 -13 9 -35 -8 -13 -19 -24
-25 -24 -18 0 -50 39 -45 54 7 19 27 20 61 5z m-9184 -24 c7 -8 10 -22 6 -30
-4 -13 -10 -14 -26 -5 -13 7 -20 7 -20 0 0 -5 7 -10 15 -10 8 0 15 -4 15 -10
0 -14 -23 -13 -38 2 -23 23 -7 68 24 68 6 0 17 -7 24 -15z m-2830 -12 c14 -9
26 -17 28 -19 7 -5 -23 -44 -34 -44 -7 0 -22 9 -35 21 -23 20 -18 21 26 3 9
-4 15 0 15 9 0 9 -9 19 -20 22 -11 3 -20 11 -20 16 0 13 12 11 40 -8z m12215
-10 c-6 -27 -6 -27 14 -9 12 11 24 16 27 13 9 -8 -36 -46 -55 -47 -9 0 -11 7
-7 23 3 12 6 28 6 35 0 6 5 12 11 12 7 0 9 -10 4 -27z m-252 -9 c21 -14 36
-28 34 -31 -8 -7 -67 26 -67 38 0 6 -4 7 -10 4 -5 -3 -10 -1 -10 4 0 17 12 13
53 -15z m-12708 0 c29 -19 33 -37 8 -27 -16 6 -16 5 -4 -10 12 -15 11 -17 -2
-17 -11 0 -14 -5 -10 -16 3 -9 2 -15 -3 -13 -47 22 -64 34 -61 43 2 6 14 10
25 8 22 -3 30 12 12 23 -13 8 -13 25 0 25 6 0 22 -7 35 -16z m3646 -30 c-23
-38 -22 -61 1 -25 14 22 43 28 53 10 7 -10 -13 -69 -22 -69 -18 0 -103 67
-103 80 0 24 26 43 50 37 11 -3 23 -1 26 5 3 5 8 7 11 4 3 -3 -4 -22 -16 -42z
m-2953 -4 c41 -25 42 -63 2 -68 -24 -3 -25 -2 -5 13 20 16 19 17 -15 45 -40
34 -30 39 18 10z m8136 -12 l-6 -33 20 25 c17 20 23 22 36 11 8 -7 15 -16 14
-19 -3 -16 16 -42 31 -42 9 0 27 -9 40 -19 14 -10 31 -17 38 -14 18 7 16 -17
-4 -39 -9 -10 -12 -18 -6 -18 5 0 16 11 23 25 13 24 30 34 30 17 0 -6 -18 -36
-36 -60 -1 -2 -12 1 -23 8 -17 9 -19 15 -11 30 11 21 1 27 -16 10 -15 -15 -64
5 -64 25 0 9 -4 13 -10 10 -5 -3 -19 -1 -30 5 -18 10 -19 14 -8 28 12 16 11
16 -6 2 -17 -13 -20 -13 -34 8 -8 12 -24 22 -36 22 -19 0 -18 2 9 25 42 34 56
32 49 -7z m3856 22 c0 -5 -4 -10 -10 -10 -5 0 -10 -7 -10 -15 0 -8 9 -15 20
-15 12 0 20 7 20 17 0 13 3 14 12 5 8 -8 8 -15 -2 -27 -26 -31 -81 1 -67 39 7
17 37 22 37 6z m434 -16 c18 -17 20 -30 7 -38 -5 -3 -11 3 -14 14 -7 26 -33
26 -47 0 -13 -25 -5 -40 21 -40 11 0 17 -4 14 -10 -9 -15 -31 -12 -49 6 -21
20 -20 26 5 58 23 30 41 33 63 10z m-124 -14 c0 -5 -4 -10 -10 -10 -5 0 -10 5
-10 10 0 6 5 10 10 10 6 0 10 -4 10 -10z m-11306 -24 c8 -14 8 -20 -1 -23 -7
-3 -13 -9 -13 -15 0 -6 7 -5 16 3 14 11 19 10 34 -8 10 -12 20 -19 24 -16 3 3
14 -1 23 -9 10 -8 26 -18 36 -21 20 -8 22 -26 4 -52 -14 -17 -15 -17 -34 2
-11 11 -27 22 -36 26 -9 3 -17 11 -17 17 0 5 -9 10 -20 10 -10 0 -23 7 -28 16
-5 9 -13 16 -18 16 -5 -1 -8 6 -6 14 2 8 -2 14 -8 14 -5 0 -10 -5 -10 -11 0
-5 -5 -7 -10 -4 -15 9 21 66 39 63 8 -2 19 -11 25 -22z m10980 -11 c25 -19 14
-30 -14 -15 -32 17 -39 2 -10 -21 17 -13 21 -21 14 -26 -7 -5 -13 -17 -15 -28
-5 -26 -42 -31 -63 -9 -19 19 -17 33 7 48 24 15 45 -7 27 -29 -7 -8 -8 -15 -4
-15 5 0 15 9 21 19 10 16 8 22 -12 35 -22 14 -23 19 -13 36 15 23 36 25 62 5z
m-12704 -31 c0 -8 -8 -18 -17 -22 -10 -4 -18 -16 -18 -27 0 -15 -7 -20 -25
-20 -19 0 -25 6 -31 33 -7 33 6 43 28 21 9 -9 10 -6 6 11 -4 13 -1 25 8 30 17
11 49 -6 49 -26z m13204 20 c19 -18 19 -20 6 -45 -13 -23 -43 -25 -60 -4 -10
12 -9 20 4 40 19 29 29 31 50 9z m36 -49 c-12 -19 -26 -35 -31 -35 -14 0 -11
7 18 51 32 49 44 34 13 -16z m-10383 20 c8 -22 -6 -33 -18 -15 -9 12 -10 12
-5 -3 3 -10 6 -23 6 -29 0 -6 6 -5 15 2 13 11 22 9 50 -6 35 -19 40 -29 29
-58 -10 -25 -26 -19 -19 7 6 18 5 20 -6 10 -15 -15 -33 -17 -24 -3 3 5 0 7 -8
4 -8 -3 -21 1 -29 9 -8 8 -24 18 -36 21 -12 4 -22 14 -22 22 0 17 16 19 23 2
3 -7 3 2 0 20 -5 28 -3 32 16 32 12 0 24 -7 28 -15z m-2196 -27 c26 -32 25
-52 -3 -44 -13 3 -29 6 -35 6 -7 0 -13 5 -13 11 0 6 9 9 20 6 21 -5 28 7 10
18 -11 7 -14 25 -4 25 3 0 14 -10 25 -22z m163 -1 c9 -14 7 -21 -6 -31 -10 -7
-18 -19 -18 -25 0 -7 -4 -10 -10 -6 -5 3 -6 13 -3 23 6 14 4 15 -9 5 -23 -19
-28 -5 -10 28 19 32 39 34 56 6z m9303 8 c7 -21 -6 -33 -16 -16 -11 17 -31 6
-31 -17 0 -14 2 -14 9 -3 5 7 14 10 20 7 6 -4 9 -12 6 -17 -4 -5 -1 -9 4 -9 6
0 11 5 11 10 0 13 27 13 35 0 9 -14 -13 -50 -31 -50 -8 0 -17 6 -20 14 -3 8
-16 17 -30 20 -42 11 -27 76 18 76 10 0 21 -7 25 -15z m3183 0 c-6 -8 -9 -18
-6 -24 3 -5 -3 -20 -13 -32 -16 -20 -23 -22 -38 -13 -10 6 -19 18 -21 26 -4
20 27 51 44 44 8 -3 14 -1 14 4 0 6 7 10 16 10 13 0 14 -3 4 -15z m-12600 -5
c0 -5 -4 -10 -10 -10 -5 0 -10 5 -10 10 0 6 5 10 10 10 6 0 10 -4 10 -10z
m11900 -46 c33 -22 38 -29 29 -45 -11 -21 -54 -26 -65 -8 -8 14 -15 79 -8 79
2 0 22 -12 44 -26z m-11750 1 c10 -12 10 -18 0 -30 -16 -19 -39 -19 -46 0 -6
15 11 45 26 45 4 0 13 -7 20 -15z m9070 -2 c0 -16 2 -16 11 -3 8 12 9 11 7 -5
-3 -14 -11 -20 -31 -20 -29 1 -36 -12 -12 -21 8 -4 15 -11 15 -16 0 -6 -7 -8
-14 -5 -10 4 -13 1 -9 -9 3 -8 -2 -25 -11 -39 -15 -22 -20 -24 -39 -14 l-22
12 20 -23 20 -23 -30 7 c-27 6 -28 5 -12 -8 15 -12 16 -18 6 -40 -7 -14 -19
-26 -26 -26 -8 0 -12 -4 -9 -9 9 -14 -5 -41 -21 -41 -10 0 -14 -9 -13 -27 3
-42 1 -46 -15 -33 -15 13 -35 6 -35 -13 0 -7 4 -6 10 3 5 8 13 11 17 6 4 -4
-3 -16 -16 -27 -13 -10 -20 -19 -17 -19 4 0 2 -9 -4 -20 -6 -11 -17 -20 -25
-20 -20 0 -19 16 1 24 9 4 14 9 11 13 -4 3 -14 0 -22 -7 -13 -11 -19 -11 -31
2 -14 14 -14 17 1 32 9 9 21 13 26 10 6 -3 2 -12 -8 -20 -10 -7 -13 -14 -7
-14 18 0 35 26 28 44 -4 10 0 18 10 22 9 3 16 12 16 19 0 7 6 18 14 25 8 6 13
17 10 24 -3 8 3 16 13 20 15 6 15 9 3 17 -11 8 -9 9 8 4 12 -4 21 -3 20 2 -5
14 52 113 65 113 8 0 8 3 -1 12 -13 13 -16 29 -4 26 12 -2 42 14 42 23 0 18
32 59 46 59 8 0 14 -8 14 -17z m3425 3 c18 -13 18 -15 2 -40 -10 -14 -22 -26
-28 -26 -7 0 -4 11 6 26 22 34 9 46 -16 15 -25 -31 -37 -20 -15 14 19 29 25
30 51 11z m-13465 -11 c0 -8 -7 -15 -15 -15 -8 0 -15 7 -15 15 0 8 7 15 15 15
8 0 15 -7 15 -15z m764 -13 c5 -3 -1 -9 -13 -14 -19 -6 -22 -13 -17 -33 4 -14
2 -25 -2 -25 -10 0 -62 71 -62 84 0 8 77 -2 94 -12z m272 -8 c-6 -15 24 -27
48 -18 9 3 16 1 16 -5 0 -6 -4 -11 -9 -11 -5 0 -11 -6 -14 -13 -3 -8 4 -13 22
-12 19 0 26 -5 25 -18 -2 -14 1 -15 12 -6 18 15 20 -11 2 -29 -8 -8 -8 -12 -1
-12 6 0 13 7 17 15 3 8 10 15 17 15 6 0 9 -6 6 -13 -3 -9 3 -13 17 -13 27 1
29 -32 3 -48 -14 -9 -21 -7 -30 5 -7 9 -23 19 -35 23 -16 6 -22 13 -17 24 5
13 3 13 -14 -2 -25 -22 -45 -12 -37 20 5 18 3 22 -9 18 -17 -7 -21 11 -5 21 6
4 8 11 4 16 -3 6 -11 3 -18 -6 -10 -14 -16 -15 -39 -4 -44 20 -31 67 19 67 17
0 23 -5 20 -14z m2074 4 c0 -6 -7 -19 -15 -28 -13 -15 -13 -19 -2 -29 11 -9
17 -8 27 4 16 19 39 19 46 0 4 -8 11 -15 17 -15 5 0 25 -11 43 -25 18 -14 38
-25 44 -25 17 0 23 -26 10 -49 -9 -18 -13 -19 -30 -8 -11 6 -18 17 -16 23 2 6
-6 10 -18 10 -17 -1 -21 4 -19 28 2 26 1 27 -16 12 -20 -18 -36 -22 -26 -6 3
6 -1 10 -9 10 -16 0 -86 38 -86 47 0 3 8 18 17 34 18 30 33 38 33 17z m7207
-7 c-3 -15 0 -17 16 -13 13 3 25 -2 34 -14 11 -15 17 -16 33 -6 18 11 19 10
14 -21 -4 -24 -3 -28 5 -17 9 13 12 13 27 -1 19 -19 11 -59 -12 -59 -12 0 -13
4 -3 23 12 22 12 22 -10 3 -18 -17 -21 -17 -21 -3 0 10 -6 14 -13 11 -8 -3
-20 2 -27 11 -7 8 -19 15 -27 15 -7 0 -16 7 -19 15 -4 8 -12 15 -18 15 -24 0
-35 21 -23 41 16 26 51 26 44 0z m-10332 -17 c30 -20 34 -39 5 -24 -11 6 -25
8 -30 5 -11 -7 -23 12 -15 25 8 13 11 13 40 -6z m12714 -23 c14 -10 19 -21 13
-24 -5 -4 -15 0 -22 8 -14 16 -40 20 -40 6 0 -5 10 -16 23 -24 19 -14 20 -18
7 -26 -8 -6 -11 -11 -7 -11 4 0 3 -9 -3 -20 -13 -23 -42 -26 -60 -5 -17 20 -8
50 15 50 15 0 19 -6 18 -22 -3 -28 13 -30 20 -4 3 13 -2 25 -15 33 -18 12 -19
17 -9 36 14 27 28 27 60 3z m687 -25 c18 -14 18 -16 2 -32 -13 -13 -20 -15
-30 -6 -11 8 -17 6 -26 -9 -10 -16 -10 -19 3 -19 8 0 15 5 15 12 0 9 3 9 11 1
17 -17 0 -36 -27 -30 -26 5 -33 -10 -9 -19 8 -4 12 -10 9 -15 -3 -5 -10 -7
-15 -4 -5 3 -6 0 -3 -8 3 -8 -2 -21 -10 -30 -9 -9 -16 -21 -16 -28 0 -10 -3
-10 -12 -1 -20 20 -32 13 -13 -8 20 -22 14 -26 -16 -10 -23 13 -25 2 -3 -15
15 -10 14 -16 -11 -53 -24 -37 -30 -40 -49 -30 -20 10 -20 10 -4 -8 12 -14 14
-24 7 -37 -6 -9 -15 -14 -21 -11 -7 5 -9 1 -5 -9 3 -9 -1 -23 -9 -31 -21 -22
-64 -1 -64 31 0 12 4 23 9 23 20 0 61 48 55 64 -4 11 -1 16 10 16 9 0 16 -4
16 -9 0 -5 7 -11 14 -14 10 -4 13 -1 9 9 -3 7 -9 14 -14 14 -13 0 -11 16 4 32
6 8 20 27 29 43 11 19 25 30 38 29 11 0 20 3 20 8 0 4 -4 8 -10 8 -16 0 -12
30 5 36 8 4 13 10 10 14 -3 5 2 15 10 23 8 9 15 20 15 26 0 6 5 11 10 11 6 0
10 6 10 13 0 13 19 37 30 37 3 0 15 -6 26 -14z m-9380 -22 c-5 -14 -4 -15 8
-5 10 9 16 9 21 1 10 -17 -3 -43 -19 -37 -10 4 -12 0 -8 -15 3 -13 -1 -24 -12
-30 -9 -5 -14 -13 -11 -19 9 -13 -19 -11 -33 3 -8 8 -12 8 -12 1 0 -6 7 -13
15 -17 8 -3 15 -10 15 -17 0 -6 -6 -9 -14 -6 -10 4 -12 0 -9 -14 4 -13 -2 -22
-18 -28 -13 -5 -18 -10 -11 -10 7 -1 10 -6 7 -11 -4 -6 -11 -8 -16 -5 -5 3 -7
0 -4 -7 2 -7 -4 -24 -15 -36 l-20 -24 -30 22 c-38 27 -31 40 7 15 24 -16 26
-16 14 -2 -17 22 -6 51 17 43 11 -4 8 2 -8 15 -24 21 -24 21 -2 15 18 -6 22
-4 22 13 0 11 6 24 13 28 14 9 32 37 47 71 5 12 14 22 20 22 5 0 10 6 10 13 0
12 19 37 28 37 2 0 1 -7 -2 -16z m-2749 -79 c-9 -7 -17 -17 -17 -24 0 -16 -15
-14 -30 4 -10 12 -9 16 4 21 9 3 16 13 16 20 0 12 4 12 22 3 20 -11 20 -13 5
-24z m2078 14 c4 -6 -1 -17 -11 -24 -11 -8 -14 -15 -8 -15 5 0 15 5 21 11 18
18 45 2 41 -23 -3 -23 -48 -40 -48 -18 0 6 -11 15 -25 20 -28 11 -33 28 -10
36 8 4 12 10 9 15 -3 5 2 9 10 9 8 0 18 -5 21 -11z m9290 -9 c14 -15 15 -23 6
-34 -8 -10 -9 -16 -1 -21 5 -3 10 -11 10 -16 0 -6 -15 -1 -33 10 -22 14 -34
16 -34 8 0 -6 -4 -21 -8 -32 -6 -16 -3 -15 14 5 l22 25 -3 -25 c-2 -20 -9 -25
-32 -25 -42 0 -58 30 -29 54 12 10 20 21 17 24 -9 9 20 47 37 47 9 0 24 -9 34
-20z m-11291 -15 c8 -9 13 -22 9 -30 -4 -11 -1 -13 11 -9 12 5 19 0 23 -15 4
-17 8 -19 19 -10 8 6 21 9 29 5 12 -4 13 -11 5 -32 -10 -24 -9 -26 5 -14 13
11 18 11 30 -1 13 -13 13 -17 0 -36 -16 -23 -45 -21 -45 3 0 8 -6 11 -15 8
-17 -7 -21 11 -5 21 6 3 10 11 10 17 0 6 -9 3 -20 -7 -17 -16 -20 -16 -20 -2
0 9 -4 19 -10 22 -6 3 -7 -1 -4 -10 5 -11 2 -14 -10 -9 -9 3 -16 16 -16 29 0
25 -32 39 -49 22 -17 -17 -14 15 5 41 18 26 27 27 48 7z m12543 -85 c-10 -53
-23 -65 -29 -27 -2 17 -9 21 -30 19 -16 -1 -28 -1 -28 2 0 9 83 65 90 61 4 -2
3 -27 -3 -55z m-1315 -29 c4 -3 -1 -17 -11 -30 -18 -24 -19 -24 -46 -7 -21 14
-25 23 -21 42 4 14 2 24 -4 24 -6 0 -8 5 -5 10 6 9 58 -15 87 -39z m1352 12
c-7 -28 -7 -28 15 -9 11 11 21 14 21 8 0 -6 -12 -20 -27 -32 -25 -19 -28 -20
-31 -5 -5 24 7 65 18 65 6 0 8 -11 4 -27z m-7234 -18 c7 -9 9 -19 5 -23 -4 -4
-10 -1 -12 6 -4 11 -33 18 -33 8 0 -2 -3 -11 -6 -19 -4 -11 2 -17 18 -19 21
-4 21 -5 5 -13 -12 -5 -24 -2 -34 8 -15 14 -15 18 1 41 19 29 38 33 56 11z
m5821 -40 c16 -9 27 -20 24 -25 -4 -6 -16 -3 -30 6 -15 10 -25 11 -29 5 -4 -6
2 -16 14 -23 21 -13 27 -28 11 -28 -5 0 -19 8 -31 18 -19 16 -21 22 -11 40 14
26 14 26 52 7z m-8656 -20 c23 -18 26 -24 13 -25 -11 0 -15 -5 -12 -15 4 -8 1
-15 -5 -15 -6 0 -10 -3 -10 -7 4 -22 -4 -22 -31 -3 -37 26 -39 45 -5 36 24 -6
35 7 15 19 -12 7 -14 35 -2 35 4 0 21 -11 37 -25z m2870 -2 c0 -13 7 -28 15
-35 12 -11 12 -10 1 4 -11 15 -11 19 4 24 9 4 21 2 27 -4 6 -6 17 -8 24 -5 9
3 14 -2 14 -16 0 -12 6 -21 15 -21 9 0 18 -7 22 -16 5 -15 7 -15 15 0 9 16 28
22 28 9 0 -5 -11 -21 -24 -38 l-24 -29 -36 24 c-29 20 -35 30 -31 48 3 12 1
22 -5 22 -6 0 -8 -5 -5 -10 12 -19 -27 -24 -41 -5 -8 10 -14 15 -14 10 0 -4
-9 0 -19 9 -17 15 -18 21 -8 37 16 25 42 20 42 -8z m7163 -18 c9 -7 -13 -35
-28 -35 -27 0 -45 27 -30 45 11 13 34 9 58 -10z m-13244 -20 c15 -27 28 -36
45 -30 8 3 11 0 8 -8 -3 -9 8 -20 30 -31 26 -12 34 -21 30 -36 -4 -16 -2 -17
15 -7 15 10 22 9 31 -3 7 -8 19 -16 27 -18 8 -2 17 -8 18 -13 2 -5 10 -9 18
-9 15 0 19 -27 6 -48 -15 -22 -44 -3 -38 24 7 26 -8 33 -18 8 -3 -8 -10 -12
-16 -9 -6 4 -8 10 -5 15 3 4 -3 14 -13 21 -15 13 -16 12 -3 -3 11 -15 11 -18
-1 -18 -21 0 -48 37 -42 57 5 16 4 16 -10 -1 -20 -24 -31 -15 -16 13 6 12 7
21 1 21 -5 0 -11 -7 -15 -15 -3 -8 -10 -15 -16 -15 -6 0 -8 4 -5 10 3 6 -1 7
-9 4 -19 -7 -21 7 -4 24 6 6 8 15 4 19 -4 5 -13 0 -20 -10 -17 -23 -29 -22
-21 2 7 23 -21 37 -41 20 -20 -16 -18 5 2 37 19 28 42 28 58 -1z m3866 10 c18
-21 5 -45 -24 -45 -26 0 -43 -16 -31 -28 4 -4 10 -1 12 6 6 16 23 15 23 -2 0
-8 -7 -17 -16 -20 -8 -3 -13 -10 -9 -15 3 -5 -5 -17 -17 -25 -12 -9 -19 -16
-15 -16 5 0 5 -5 2 -10 -4 -7 -13 -7 -26 0 -24 13 -25 2 -1 -16 9 -7 12 -14 6
-14 -7 0 -15 -11 -18 -25 -7 -28 -32 -33 -60 -12 -21 15 -14 57 9 57 9 0 12 6
8 17 -4 9 -2 14 3 11 12 -8 38 12 47 35 3 9 13 17 21 17 9 0 12 7 9 20 -3 12
1 22 11 26 9 3 16 14 16 24 0 16 11 27 31 29 4 1 12 -6 19 -14z m7953 -11 c21
-14 36 -28 33 -31 -6 -7 -86 38 -86 49 0 14 14 9 53 -18z m1373 -15 c19 -11
34 -27 34 -35 0 -19 -8 -18 -28 4 -10 10 -13 12 -8 5 11 -17 0 -43 -19 -43 -9
0 -14 -4 -11 -9 9 -14 -4 -41 -20 -41 -8 0 -11 -6 -8 -15 9 -23 -4 -18 -64 21
-2 1 1 12 8 23 13 24 38 28 46 6 4 -8 13 -15 22 -15 10 0 3 10 -19 26 -25 19
-28 24 -11 19 17 -5 22 -2 22 13 0 11 7 23 16 26 13 5 14 9 4 21 -17 21 -3 19
36 -6z m-4066 -14 c13 -16 6 -35 -14 -35 -7 0 -12 -10 -12 -22 1 -18 -5 -23
-24 -23 -18 0 -25 5 -25 20 -1 11 -4 26 -8 33 -11 16 15 16 32 0 11 -11 12
-10 7 0 -19 33 19 57 44 27z m-2851 -14 c11 -7 10 -15 -9 -41 -26 -36 -41 -33
-16 4 9 14 16 29 16 33 0 4 -10 -7 -22 -26 -12 -19 -24 -29 -26 -23 -4 12 26
62 37 62 3 0 12 -4 20 -9z m-994 -73 l-6 -53 22 35 c30 46 28 44 35 38 5 -6
-12 -43 -34 -76 -12 -17 -42 -4 -42 18 0 21 -22 32 -47 24 -10 -3 0 10 22 30
22 20 44 36 48 36 5 0 6 -24 2 -52z m6505 -5 c0 -10 -8 -12 -27 -7 -48 11 -62
23 -28 24 22 0 26 3 17 12 -24 24 -12 31 13 8 14 -13 25 -30 25 -37z m30 37
c0 -5 -4 -10 -10 -10 -5 0 -10 5 -10 10 0 6 5 10 10 10 6 0 10 -4 10 -10z
m-12051 -29 c20 -15 22 -21 12 -39 -14 -25 -36 -29 -45 -7 -3 8 -10 15 -16 15
-17 0 -11 -28 10 -43 30 -21 12 -29 -21 -10 -33 20 -35 26 -14 47 8 8 15 18
15 23 0 10 21 33 30 33 3 0 16 -9 29 -19z m9280 -22 c27 -26 22 -44 -12 -44
-15 1 -27 -5 -27 -12 0 -7 7 -10 15 -7 19 8 19 -6 1 -31 -13 -19 -15 -18 -29
15 -9 20 -16 28 -16 18 -1 -25 -21 -22 -21 2 0 11 7 23 15 26 8 4 15 14 15 23
0 37 26 41 59 10z m3565 -26 l-5 -38 16 28 c9 15 20 27 25 27 14 0 12 -13 -2
-29 -7 -8 -8 -11 -2 -8 5 3 23 -3 40 -14 16 -10 37 -19 47 -19 18 0 24 -25 7
-35 -5 -3 -10 -11 -10 -18 0 -6 6 -2 14 8 15 20 46 15 46 -8 0 -27 -24 -38
-54 -24 -23 10 -26 17 -22 42 4 28 4 28 -6 8 -6 -13 -15 -23 -20 -23 -11 0
-10 7 2 31 6 11 7 19 1 19 -5 0 -11 -7 -15 -15 -3 -8 -10 -15 -16 -15 -7 0 -8
6 0 19 17 32 11 38 -10 11 -11 -14 -20 -19 -20 -12 0 6 -7 12 -15 12 -8 0 -19
9 -25 21 -7 11 -17 18 -25 15 -26 -10 -25 8 2 31 41 33 53 30 47 -14z m-7267
7 c-4 -16 -2 -18 13 -10 24 13 33 13 25 0 -3 -5 3 -10 13 -10 34 0 46 -25 27
-54 -20 -30 -20 -30 -46 -16 -23 13 -25 36 -3 48 10 6 12 12 6 16 -5 3 -15 -1
-22 -9 -20 -24 -43 -19 -36 8 3 12 6 28 6 35 0 6 5 12 11 12 6 0 9 -9 6 -20z
m6416 3 c6 -3 0 -10 -12 -15 -19 -6 -22 -13 -17 -33 4 -14 2 -25 -2 -25 -10 0
-62 71 -62 84 0 9 76 0 93 -11z m1347 -44 c0 -4 -6 -14 -14 -21 -7 -8 -17 -24
-20 -36 -9 -27 -23 -28 -56 -2 -31 24 -20 37 13 15 21 -14 25 -14 30 -1 3 8
-1 20 -8 26 -11 9 -12 17 -5 31 9 16 14 17 35 7 14 -6 25 -15 25 -19z m-12026
15 c20 -8 21 -43 1 -50 -8 -4 -15 -15 -15 -25 0 -10 -6 -19 -14 -19 -8 0 -16
-10 -18 -22 -2 -14 -10 -23 -19 -22 -12 1 -15 -4 -11 -19 3 -12 -1 -25 -10
-31 -9 -6 -17 -20 -19 -31 -6 -27 -29 -29 -59 -6 -21 17 -22 21 -10 36 7 9 22
14 32 12 10 -3 16 -1 13 3 -8 13 6 40 21 40 7 0 11 6 8 14 -3 7 1 20 8 27 8 8
17 22 21 32 3 9 14 17 23 17 13 0 14 -3 5 -14 -7 -9 -8 -17 -3 -20 15 -9 24
25 11 40 -12 15 -6 44 10 44 5 0 16 -3 25 -6z m-766 -17 c-1 -2 3 -11 10 -20
9 -10 10 -17 2 -22 -5 -3 -10 -11 -10 -17 0 -6 9 -3 19 7 19 16 21 16 50 -5
17 -12 35 -18 41 -15 5 3 10 -3 10 -14 0 -10 -6 -21 -12 -24 -8 -2 -9 -8 -4
-13 5 -5 11 -4 13 4 3 6 13 12 24 12 23 0 26 -32 4 -50 -23 -19 -67 17 -59 50
5 24 5 24 -10 5 -8 -11 -18 -17 -22 -13 -4 4 -1 14 6 23 7 8 8 15 2 15 -5 0
-13 -7 -16 -16 -3 -8 -11 -12 -16 -9 -8 5 -7 12 2 23 11 15 11 15 -3 4 -18
-14 -49 -6 -49 12 0 7 6 18 13 26 6 8 2 6 -11 -5 -21 -17 -24 -18 -39 -2 -9 9
-13 20 -9 24 4 4 11 1 16 -7 8 -13 12 -12 24 5 9 11 16 24 16 29 0 5 3 7 6 4
3 -4 4 -8 2 -11z m-609 -14 c20 -17 20 -20 6 -40 -21 -30 -49 -19 -42 16 5 24
4 25 -9 6 -14 -18 -14 -18 -14 1 0 38 25 45 59 17z m8641 2 c15 -18 6 -45 -14
-45 -10 0 -13 -6 -9 -17 5 -12 3 -14 -7 -8 -9 5 -11 4 -6 -3 11 -19 -25 -64
-46 -59 -16 4 -17 3 -7 -9 14 -17 5 -44 -16 -44 -18 0 -21 20 -2 20 6 1 2 9
-10 19 -27 22 -29 31 -8 31 8 0 15 5 15 12 0 9 3 9 12 0 20 -20 32 -13 13 8
-12 13 -14 20 -5 20 10 0 10 3 0 16 -11 12 -10 18 3 32 10 9 17 11 17 5 0 -6
-5 -13 -10 -15 -6 -2 0 -9 12 -17 21 -13 22 -13 9 2 -9 11 -10 17 -2 17 6 0
11 8 11 18 0 34 28 43 50 17z m-2866 -10 c8 -8 18 -15 23 -15 24 0 32 -23 17
-52 -12 -24 -18 -27 -34 -18 -29 15 -35 32 -16 45 14 11 14 14 1 25 -12 10
-17 8 -26 -14 -7 -14 -16 -23 -20 -20 -11 6 17 64 31 64 5 0 15 -7 24 -15z
m-5806 -73 c3 -20 -24 -49 -35 -38 -4 3 2 12 12 20 17 12 16 15 -18 38 -20 14
-34 28 -30 31 10 11 68 -30 71 -51z m12142 9 c0 -5 -10 -7 -22 -3 -21 5 -22 4
-8 -13 13 -17 13 -18 -1 -13 -9 4 -22 1 -28 -5 -21 -21 -23 2 -1 32 18 26 25
29 41 21 10 -6 19 -15 19 -19z m-6200 12 c0 -2 -11 -21 -25 -43 -22 -35 -28
-39 -45 -30 -22 12 -27 49 -9 67 9 9 79 15 79 6z m-1295 -26 c17 -14 17 -15
-2 -34 -12 -12 -19 -30 -17 -47 2 -20 -1 -26 -11 -22 -8 3 -15 0 -17 -6 -3 -8
-10 -7 -26 1 -12 6 -22 8 -22 2 0 -5 7 -11 15 -15 8 -3 15 -10 15 -16 0 -7 -6
-8 -19 0 -28 14 -39 12 -18 -4 17 -13 17 -16 2 -45 -17 -34 -25 -37 -43 -19
-17 17 -15 48 4 48 8 0 12 4 9 10 -3 5 4 23 16 39 19 25 25 28 43 20 19 -9 20
-9 3 4 -22 18 -12 47 17 47 14 0 17 3 8 8 -15 10 -6 42 12 42 7 0 20 -6 31
-13z m8565 -2 c10 -12 10 -19 2 -27 -7 -7 -12 -16 -12 -22 0 -5 6 -2 13 8 12
17 15 17 29 2 9 -9 22 -16 28 -16 6 0 13 -7 16 -15 4 -8 10 -12 15 -9 5 3 9 2
9 -3 0 -4 20 -16 45 -26 44 -19 51 -29 39 -61 -10 -27 -27 -18 -20 12 5 22 4
24 -4 10 -6 -10 -16 -18 -22 -18 -6 0 -7 8 -3 18 5 14 4 15 -6 5 -17 -17 -29
-16 -29 2 0 9 -6 12 -16 8 -13 -5 -15 -2 -9 18 7 21 6 22 -8 10 -25 -20 -50
-6 -45 24 6 29 0 32 -18 8 -8 -11 -13 -13 -14 -5 0 6 -8 12 -18 12 -33 0 -43
20 -24 52 18 32 34 35 52 13z m-7246 -11 c21 -8 21 -48 0 -65 -33 -27 -70 24
-39 55 19 18 18 18 39 10z m6200 -24 l-1 -24 15 22 c18 28 36 29 21 1 -9 -17
-8 -20 1 -14 10 6 11 1 6 -21 -6 -26 -5 -27 7 -11 18 22 31 22 23 1 -5 -14 -4
-15 8 -5 18 15 36 6 36 -16 0 -13 -3 -13 -15 -3 -12 10 -15 10 -15 -4 0 -9 5
-16 11 -16 5 0 8 -4 4 -10 -8 -13 -35 -1 -35 17 0 8 -4 12 -9 9 -18 -11 -43 6
-38 26 4 15 3 17 -8 8 -10 -9 -20 -7 -39 5 -30 20 -30 19 -13 45 16 27 42 21
41 -10z m956 20 c0 -5 -4 -10 -10 -10 -5 0 -10 5 -10 10 0 6 5 10 10 10 6 0
10 -4 10 -10z m-13210 -34 c0 -7 10 -21 23 -30 21 -16 21 -17 1 -13 -17 4 -20
0 -16 -24 5 -33 -20 -49 -47 -32 -26 16 -20 56 9 63 16 4 21 8 13 13 -7 4 -10
14 -6 22 7 19 23 20 23 1z m7350 -1 c15 -18 6 -45 -15 -45 -9 0 -14 -4 -11 -9
9 -14 -5 -41 -21 -41 -8 0 -11 -4 -8 -10 3 -5 1 -10 -6 -10 -7 0 -9 -3 -6 -6
10 -11 -13 -46 -27 -41 -9 4 -11 -2 -8 -18 5 -27 -11 -39 -42 -31 -43 11 -40
67 3 66 14 -1 13 -3 -3 -15 -20 -15 -14 -35 12 -35 15 0 15 2 2 10 -11 7 -12
12 -3 21 6 6 9 18 6 26 -5 13 -2 13 15 4 12 -7 22 -8 22 -2 0 5 -7 12 -16 15
-8 3 -12 11 -9 16 4 6 12 7 19 3 7 -4 4 -1 -6 8 -20 19 -12 35 9 18 11 -10 12
-5 9 25 -5 33 -4 35 14 26 17 -9 20 -7 20 8 0 34 28 44 50 17z m5056 -50 c-3
-8 0 -15 5 -15 7 0 9 -9 6 -21 -5 -17 -3 -18 9 -8 19 16 48 -10 38 -34 -8 -21
-43 -22 -50 -2 -4 8 -11 12 -17 8 -6 -4 -8 4 -3 23 6 27 5 28 -9 10 -23 -29
-29 -12 -9 23 19 32 41 43 30 16z m-6409 -32 l22 -15 -22 -34 c-27 -41 -62
-47 -55 -9 3 14 1 25 -3 25 -5 0 -9 -8 -9 -17 0 -13 -3 -14 -12 -5 -9 10 -8
16 5 29 14 14 21 15 43 4 40 -18 40 -6 0 19 -20 12 -36 26 -36 31 0 10 24 -1
67 -28z m2623 16 c0 -5 5 -7 10 -4 6 3 10 -1 10 -10 0 -9 -9 -19 -19 -22 -11
-3 -18 -10 -15 -16 6 -19 -12 -39 -32 -35 -21 4 -40 68 -20 68 7 0 17 -5 23
-11 7 -7 9 -3 6 15 -4 21 -2 26 16 26 11 0 21 -5 21 -11z m-8678 -39 c12 -10
25 -17 30 -14 4 3 8 1 8 -4 0 -19 -14 -21 -42 -6 -17 9 -27 11 -23 4 4 -6 -1
-17 -11 -24 -17 -13 -16 -14 4 -25 19 -10 24 -9 32 11 l10 23 -3 -25 c-1 -17
-9 -26 -25 -28 -22 -3 -53 -42 -32 -42 5 0 10 7 10 15 0 8 5 15 10 15 14 0 13
-23 -2 -38 -29 -29 -62 -9 -72 43 -3 17 -4 25 -1 19 10 -21 45 -3 45 22 0 12
5 26 10 29 6 3 10 15 10 26 0 24 15 24 42 -1z m1389 10 c10 -6 19 -15 19 -21
0 -6 -8 -6 -21 1 -11 7 -23 9 -26 6 -3 -3 2 -8 11 -12 9 -3 16 -13 16 -21 0
-12 -3 -13 -14 -4 -11 9 -12 6 -8 -14 3 -17 -1 -27 -12 -31 -9 -3 -16 -14 -16
-23 0 -32 -20 -40 -51 -22 -16 9 -29 21 -29 27 0 18 28 37 46 30 12 -4 15 -2
11 9 -4 8 2 20 13 28 11 8 17 17 14 20 -6 6 13 37 23 37 2 0 13 -5 24 -10z
m8089 -26 c0 -8 -7 -17 -15 -20 -8 -4 -15 -13 -15 -21 0 -8 -5 -11 -10 -8 -6
4 -7 11 -4 17 4 6 -1 8 -15 3 -26 -8 -26 -1 0 36 17 24 24 27 40 19 10 -6 19
-17 19 -26z m-9313 11 c8 -22 -6 -33 -17 -15 -6 9 -10 10 -10 3 0 -6 5 -15 10
-18 6 -4 7 -12 3 -18 -4 -7 0 -6 10 2 20 16 51 7 44 -13 -4 -9 2 -12 19 -8 18
3 24 0 24 -14 0 -42 -15 -48 -56 -23 -22 13 -40 27 -42 31 -2 4 -9 8 -17 8
-17 0 -40 29 -30 38 4 4 10 1 12 -5 3 -7 10 -13 16 -13 8 0 7 4 -1 12 -7 7
-12 20 -12 30 0 22 38 25 47 3z m4468 -56 c0 -13 4 -27 10 -31 5 -4 6 -10 3
-14 -4 -3 -21 2 -37 13 -29 18 -30 20 -15 41 20 28 39 24 39 -9z m4892 2 c12
-11 24 -17 27 -14 3 4 6 -1 6 -10 0 -9 6 -14 13 -12 20 7 50 -22 43 -41 -5
-14 -4 -15 8 -5 16 14 46 4 46 -15 0 -7 6 -11 13 -9 6 3 18 1 26 -4 12 -8 13
-14 3 -35 -6 -14 -16 -26 -22 -26 -13 0 -13 17 0 25 6 3 10 11 10 17 0 6 -8 4
-18 -5 -20 -19 -37 -23 -27 -7 3 6 -3 10 -15 10 -11 0 -23 7 -26 15 -4 8 -10
13 -14 10 -5 -3 -16 3 -26 12 -11 11 -13 18 -5 21 6 2 11 8 11 14 0 6 -9 3
-20 -7 -18 -16 -24 -14 -21 7 0 4 -6 5 -14 2 -10 -4 -15 0 -15 11 0 9 -4 14
-9 11 -15 -10 -41 5 -41 23 0 36 34 42 67 12z m-3529 -3 c16 -16 15 -36 -2
-53 -11 -12 -19 -10 -50 11 -35 24 -50 49 -22 38 8 -3 17 -1 21 5 8 15 38 14
53 -1z m2605 -4 c23 -8 22 -26 -3 -41 -16 -11 -21 -10 -30 6 -14 27 -13 54 3
47 6 -3 20 -9 30 -12z m-8303 -52 c14 -1 30 -9 37 -18 7 -10 22 -14 40 -12 20
2 27 -1 26 -12 -2 -8 13 -25 32 -38 30 -19 34 -25 25 -42 -6 -11 -17 -20 -26
-20 -19 0 -30 30 -14 40 9 6 9 9 0 15 -6 4 -17 -1 -24 -10 -12 -17 -14 -17
-39 0 -15 9 -27 21 -27 26 0 5 -9 9 -20 9 -19 0 -25 10 -20 39 1 13 -1 13 -14
2 -22 -18 -30 -8 -21 26 5 20 9 24 14 13 3 -8 17 -16 31 -18z m5616 5 c8 3 25
-2 39 -11 21 -14 24 -20 15 -36 -6 -11 -20 -20 -32 -20 -16 0 -19 5 -16 25 6
28 -8 35 -15 8 -4 -14 -5 -13 -6 4 0 12 -6 25 -11 28 -6 4 -7 12 -3 18 5 8 9
7 11 -5 2 -10 9 -15 18 -11z m2652 -13 c29 -20 29 -38 0 -22 -13 7 -29 11 -35
10 -7 -2 -13 4 -13 13 0 19 19 19 48 -1z m-8628 -52 c0 -9 -5 -10 -18 -3 -29
15 -47 -7 -25 -31 27 -30 10 -29 -35 1 -23 15 -39 31 -35 34 3 4 12 2 20 -5
22 -18 41 6 25 32 -19 31 -15 32 28 8 22 -13 40 -29 40 -36z m3507 38 c-3 -12
-1 -18 5 -14 7 5 9 -3 4 -22 -6 -26 -5 -27 7 -11 8 9 18 17 22 17 4 0 5 -8 1
-17 -4 -12 0 -11 10 4 14 20 18 21 30 8 11 -11 12 -20 5 -33 -9 -17 -7 -18 13
-15 29 6 41 -20 20 -41 -17 -17 -44 -11 -44 10 0 8 -6 11 -15 8 -18 -7 -20 7
-2 26 6 8 1 6 -12 -5 -20 -16 -23 -17 -18 -4 4 13 1 16 -14 12 -15 -4 -22 0
-26 16 -3 11 -9 19 -13 16 -13 -8 -40 6 -40 21 0 17 20 19 20 2 0 -7 10 -1 21
15 24 32 33 35 26 7z m1166 8 c16 -12 15 -16 -8 -50 -14 -21 -32 -38 -39 -38
-21 0 -61 36 -49 43 6 4 16 0 23 -8 7 -8 19 -15 26 -15 17 0 19 37 2 42 -15 5
-3 38 15 38 7 0 21 -6 30 -12z m2641 -7 c14 -16 15 -20 2 -30 -8 -7 -21 -9
-28 -5 -10 6 -11 5 -1 -7 12 -15 8 -26 -23 -67 -1 -2 -12 1 -23 8 -12 6 -21 7
-21 1 0 -5 7 -11 15 -15 8 -3 15 -10 15 -16 0 -8 -6 -8 -20 0 -25 13 -26 2 -2
-17 16 -13 15 -14 -6 -10 -19 5 -21 3 -11 -9 16 -19 -10 -48 -34 -38 -20 7
-23 42 -4 50 8 3 14 10 14 17 0 7 8 25 17 40 16 23 21 25 40 15 21 -11 21 -11
2 11 -11 11 -16 21 -11 21 4 0 2 7 -6 16 -11 13 -9 14 16 8 20 -5 26 -4 21 5
-8 12 10 41 24 41 4 0 14 -8 24 -19z m-1986 -7 c30 -21 28 -40 -3 -20 -13 9
-27 16 -30 16 -13 0 -3 -24 18 -41 30 -25 1 -25 -32 0 -20 15 -22 21 -12 39
14 26 29 28 59 6z m632 -40 c9 -22 13 -24 25 -14 18 15 19 7 5 -21 -15 -27
-29 -24 -41 8 -8 22 -12 24 -19 13 -5 -8 -12 -12 -15 -8 -7 7 16 48 28 48 4 0
12 -12 17 -26z m-670 -24 l25 -19 -22 -23 -23 -22 -20 22 c-23 24 -26 48 -7
55 19 8 20 8 47 -13z m649 -29 c20 -15 22 -21 12 -39 -15 -27 -32 -28 -54 -2
-20 24 -21 32 -5 48 15 15 18 15 47 -7z m-679 -62 c-13 -22 -37 -24 -64 -4
-28 21 -12 30 18 10 23 -15 26 -16 26 -2 0 9 -9 21 -20 27 -11 6 -18 15 -15
21 4 5 19 0 36 -11 24 -18 27 -25 19 -41z m-5336 36 c24 -18 15 -30 -12 -16
-12 6 -25 11 -31 11 -20 0 -11 -17 15 -29 37 -16 22 -27 -16 -11 -20 8 -29 18
-26 27 4 8 6 19 6 24 0 14 43 10 64 -6z m3783 -22 c-6 -36 -5 -37 9 -18 l15
20 15 -20 c8 -11 18 -19 22 -19 15 3 32 -8 26 -17 -3 -5 2 -9 11 -9 8 0 32
-11 53 -23 20 -13 43 -22 50 -20 17 7 15 -17 -5 -39 -9 -10 -12 -18 -6 -18 5
0 16 11 23 25 7 14 15 23 18 21 2 -2 2 -7 0 -10 -1 -3 7 -13 20 -21 12 -9 22
-22 22 -30 0 -8 7 -11 19 -8 23 6 34 -10 26 -37 -8 -26 -45 -26 -52 -1 -3 13
-10 17 -20 14 -13 -5 -14 -3 -3 18 13 24 13 24 -9 5 -11 -11 -21 -15 -21 -9 0
5 -11 15 -25 21 -22 10 -24 15 -15 34 10 21 10 21 -3 6 -20 -25 -30 -22 -21 4
6 20 5 21 -8 10 -12 -10 -21 -10 -42 -1 -14 7 -26 15 -26 18 0 4 -12 7 -27 6
-29 0 -33 11 -17 50 7 17 6 18 -8 7 -18 -14 -44 -7 -52 15 -4 8 -13 13 -21 9
-25 -9 -17 11 13 33 39 29 45 26 39 -16z m2176 2 c40 -27 54 -58 15 -33 -13 8
-33 21 -45 29 -23 14 -30 29 -15 29 4 0 24 -11 45 -25z m-697 -26 c36 -22 43
-49 19 -69 -12 -10 -19 -10 -27 -2 -9 9 -8 12 5 12 27 0 20 27 -13 47 -16 9
-30 21 -30 25 0 12 10 10 46 -13z m6867 6 c4 -8 2 -17 -2 -20 -5 -3 -12 3 -15
12 -6 15 -8 15 -23 1 -9 -10 -12 -21 -7 -29 5 -9 9 -8 15 7 6 18 7 18 14 1 9
-22 -6 -40 -28 -32 -22 9 -29 33 -17 56 13 22 55 26 63 4z m-6177 -20 c20 -20
23 -28 14 -45 -20 -38 -90 -16 -90 29 0 20 19 41 37 41 8 0 25 -11 39 -25z
m-6001 3 c29 -13 30 -17 11 -43 -17 -24 -50 -13 -43 15 3 11 1 20 -4 20 -5 0
-9 -8 -10 -17 0 -11 -2 -13 -6 -5 -6 16 3 42 16 42 6 0 22 -5 36 -12z m7289
-40 c27 -22 14 -35 -15 -15 -11 9 -28 13 -37 10 -16 -7 -12 5 12 36 9 11 11
11 14 0 3 -8 14 -22 26 -31z m831 4 c5 -12 15 -22 22 -22 7 0 16 -6 20 -12 11
-18 52 -40 63 -33 18 11 21 -17 3 -37 l-18 -21 26 17 c23 15 27 15 39 1 10
-12 16 -13 26 -4 11 9 14 8 14 0 0 -7 5 -9 12 -5 8 5 9 0 5 -15 -4 -18 -3 -20
9 -10 23 19 24 6 2 -30 -13 -21 -23 -28 -28 -21 -4 6 -10 10 -13 8 -2 -1 -24
9 -47 25 -23 15 -46 27 -51 27 -12 0 -11 7 1 30 7 13 6 19 -4 23 -10 4 -12 0
-9 -14 3 -10 1 -19 -5 -19 -16 0 -82 41 -82 50 0 5 -10 10 -22 12 -29 4 -35
34 -12 59 21 23 35 21 49 -9z m4095 2 c0 -7 6 -11 14 -8 7 3 20 -2 29 -10 9
-9 20 -16 25 -16 5 0 15 -7 23 -16 8 -10 22 -13 38 -10 14 3 21 3 14 0 -7 -3
-9 -12 -6 -20 3 -7 8 -12 13 -9 16 10 42 -21 36 -43 -9 -28 -30 -29 -23 -1 5
20 5 20 -14 3 -10 -9 -19 -12 -19 -7 0 6 -8 14 -17 17 -35 13 -73 37 -73 47 0
5 -6 9 -14 9 -19 0 -76 33 -76 43 0 5 5 17 10 27 11 21 40 17 40 -6z m-12241
-32 c10 -7 11 -14 2 -31 -15 -27 -32 -27 -62 0 -23 20 -18 21 26 3 22 -9 18
13 -5 29 -11 8 -17 17 -14 20 6 6 21 0 53 -21z m692 18 c25 -14 24 -31 -1 -53
-20 -17 -22 -17 -50 0 -16 9 -27 20 -24 25 3 4 17 0 32 -9 26 -17 26 -17 13 0
-7 9 -11 24 -7 32 6 18 11 18 37 5z m4629 -62 c0 -12 -8 -10 -35 8 -23 15 -25
15 -25 1 0 -9 9 -21 20 -27 19 -10 19 -11 -2 -46 -25 -42 -54 -43 -51 -1 2 33
-5 35 -17 5 -8 -22 -9 -22 -9 5 -1 22 3 27 23 27 14 0 28 -4 31 -10 3 -5 12
-10 18 -10 7 0 0 10 -15 21 -32 24 -34 32 -12 53 14 15 18 15 45 -1 16 -10 29
-21 29 -25z m-5367 -16 c9 -8 17 -19 17 -23 0 -14 -31 -39 -41 -33 -6 3 -3 11
7 18 16 12 14 15 -14 36 -18 13 -32 28 -32 32 0 10 37 -8 63 -30z m677 3 c-10
-12 -10 -15 4 -15 9 0 16 5 16 12 0 9 3 9 12 0 16 -16 -3 -35 -28 -30 -25 4
-32 48 -8 48 13 0 14 -3 4 -15z m-550 -40 c10 -12 8 -21 -11 -50 l-24 -35 -17
23 c-22 28 -22 36 -1 59 20 22 36 23 53 3z m544 0 c11 -8 17 -18 13 -21 -4 -4
-13 -1 -22 6 -9 8 -15 8 -15 2 0 -6 5 -14 10 -17 6 -3 10 -11 10 -16 0 -6 -4
-7 -10 -4 -5 3 -8 0 -5 -7 3 -7 0 -20 -5 -28 -7 -12 -13 -12 -27 -4 -24 15
-24 49 1 47 13 -1 15 2 8 9 -8 8 -8 17 -1 30 12 22 18 22 43 3z m3636 -45 c0
-11 -4 -20 -10 -20 -5 0 -10 -5 -10 -11 0 -8 5 -8 15 1 18 15 45 6 45 -14 0
-9 7 -12 20 -9 12 3 22 -1 26 -11 3 -9 15 -16 25 -16 21 0 25 -25 9 -50 -8
-12 -13 -13 -27 -2 -10 6 -28 16 -40 22 -13 5 -23 14 -23 20 0 5 -6 10 -12 10
-17 1 -58 35 -58 49 0 6 -7 8 -15 5 -19 -8 -19 1 2 36 13 23 20 27 35 19 10
-5 18 -19 18 -29z m925 20 c3 -5 0 -10 -8 -10 -8 0 -17 -7 -21 -15 -7 -19 4
-19 29 -1 20 15 55 5 55 -14 0 -16 -40 -51 -51 -45 -5 4 1 15 13 25 19 16 20
19 6 20 -9 0 -20 -4 -23 -10 -9 -15 -42 -12 -48 4 -6 15 18 56 33 56 5 0 12
-4 15 -10z m-5091 -32 c-6 -20 -5 -21 10 -9 9 8 19 11 23 8 3 -4 12 -2 20 4
16 14 17 5 1 -24 -10 -19 -9 -20 3 -10 22 18 43 0 35 -31 -3 -14 -11 -26 -17
-26 -6 0 -8 9 -4 23 6 18 5 20 -6 10 -16 -16 -33 -17 -23 -1 4 6 3 8 -4 4 -16
-10 -62 15 -62 34 0 14 18 40 28 40 2 0 0 -10 -4 -22z m-227 -20 c29 -28 29
-38 -1 -38 -32 0 -57 10 -51 21 3 4 12 6 20 2 18 -6 20 8 3 25 -22 22 5 13 29
-10z m48 12 c3 -5 1 -10 -4 -10 -6 0 -11 5 -11 10 0 6 2 10 4 10 3 0 8 -4 11
-10z m648 -35 c13 -18 14 -25 5 -25 -21 1 -51 28 -43 39 9 16 18 13 38 -14z
m2295 9 c11 -20 -7 -74 -25 -74 -7 0 -13 -4 -13 -9 0 -5 9 -7 20 -4 22 6 28
-12 8 -21 -7 -4 -3 -4 9 -2 13 2 26 0 29 -5 3 -5 -2 -9 -11 -9 -12 0 -13 -4
-7 -17 5 -10 9 -33 8 -51 0 -19 5 -38 12 -44 6 -6 12 -17 12 -24 0 -8 -6 -14
-12 -14 -7 0 -5 -5 5 -11 21 -12 22 -35 1 -43 -31 -12 -44 -6 -44 19 0 16 -6
25 -15 25 -8 0 -16 5 -16 10 -5 28 -3 35 9 36 23 3 23 4 8 20 -21 21 -20 35 4
41 11 3 20 10 20 15 0 6 -9 8 -20 5 -11 -3 -23 -1 -26 4 -3 5 3 9 13 10 14 0
15 2 3 6 -30 12 -43 66 -17 76 6 3 2 6 -10 6 -16 1 -23 7 -23 20 0 42 59 68
78 35z m-2628 -23 c0 -10 -7 -22 -16 -25 -9 -4 -14 -9 -10 -13 3 -3 14 1 25
11 16 14 20 15 30 2 7 -8 9 -21 5 -28 -6 -10 -5 -11 7 -1 13 10 19 10 34 -1
17 -12 18 -16 5 -32 -12 -16 -12 -17 0 -6 21 18 50 15 50 -6 0 -33 -20 -43
-52 -24 -30 17 -34 27 -18 37 6 3 10 11 10 17 0 6 -8 4 -18 -5 -20 -19 -37
-23 -27 -7 3 5 0 7 -8 4 -8 -3 -20 2 -27 11 -7 8 -19 15 -26 15 -18 0 -17 4 1
40 18 34 35 39 35 11z m275 -3 c-6 -19 -5 -21 6 -10 18 17 32 15 26 -3 -4 -8
-2 -17 4 -20 5 -4 7 -11 3 -16 -7 -11 -64 21 -64 36 0 10 20 35 28 35 2 0 0
-10 -3 -22z m-667 -13 c37 -8 42 -22 10 -27 -18 -2 -22 -9 -20 -30 1 -16 1
-28 -2 -28 -2 0 -18 19 -35 42 -31 42 -32 62 -3 54 10 -2 32 -7 50 -11z
m10622 -82 c0 -17 -8 -16 -26 2 -9 8 -21 15 -27 15 -7 0 -4 -7 6 -14 20 -15
13 -46 -10 -46 -13 0 -13 -3 -3 -15 20 -24 3 -31 -21 -9 -22 19 -22 19 -8 -3
11 -18 11 -25 1 -35 -10 -10 -17 -10 -35 1 -22 14 -22 14 -3 -8 18 -20 19 -23
3 -38 -9 -9 -20 -14 -24 -10 -3 4 -2 12 4 18 8 8 4 18 -15 36 -17 15 -21 23
-10 19 9 -2 18 0 20 6 3 8 10 7 26 -1 12 -6 22 -8 22 -2 0 5 -7 11 -15 15 -8
3 -15 10 -15 16 0 6 6 8 13 4 10 -6 10 -4 0 7 -23 23 -14 32 15 14 15 -10 21
-12 15 -4 -19 20 -15 31 6 19 28 -14 39 -12 18 4 -17 13 -14 46 4 46 5 0 8 3
8 8 -1 4 -1 12 0 17 2 13 51 -47 51 -62z m-3844 0 c-2 -10 -7 -33 -11 -50 -7
-38 -20 -43 -28 -12 -3 12 -13 20 -24 19 -36 -4 -36 1 3 30 44 34 68 38 60 13z
m-185 -43 c5 0 9 -9 9 -20 0 -11 -5 -20 -10 -20 -6 0 -15 -11 -20 -25 -5 -14
-14 -25 -20 -25 -6 0 -8 -5 -4 -11 5 -9 -1 -10 -22 -5 -27 6 -28 5 -10 -8 18
-15 18 -16 2 -42 -12 -17 -24 -24 -36 -21 -22 6 -37 -23 -18 -34 7 -4 9 -11 6
-14 -7 -7 -68 25 -68 35 1 12 28 39 33 33 4 -3 2 -12 -4 -20 -9 -10 -8 -13 1
-13 6 0 14 9 17 20 4 16 11 19 27 14 l21 -7 -20 23 c-16 19 -17 22 -4 17 13
-4 16 -1 12 14 -4 14 0 22 15 26 14 3 19 10 15 20 -4 9 0 21 8 27 9 6 18 19
22 30 5 11 13 16 23 12 9 -3 20 -6 25 -6z m213 -12 c-6 -20 -5 -21 10 -9 9 8
20 11 24 7 7 -7 -35 -45 -50 -46 -10 0 -10 32 -2 54 10 25 26 19 18 -6z m5253
-39 l-5 -42 20 34 c12 20 23 29 25 21 3 -6 8 -10 13 -7 7 5 25 -41 22 -57 -1
-4 6 -4 15 -1 9 3 21 0 27 -8 6 -8 17 -15 24 -17 6 -1 18 -3 24 -5 7 -1 18 -9
25 -17 9 -11 12 -12 13 -2 0 7 5 10 11 6 6 -3 7 -9 3 -13 -5 -3 -14 -15 -20
-25 -13 -24 -25 -28 -44 -16 -12 8 -13 13 -2 30 16 26 -4 28 -25 3 -13 -17
-14 -16 -10 5 5 23 -8 31 -16 10 -3 -10 -9 -9 -23 3 -10 9 -29 20 -42 24 -15
4 -21 12 -18 21 3 8 2 13 -3 9 -15 -8 -41 6 -41 22 0 9 -6 13 -15 10 -27 -11
-25 11 2 32 40 29 46 26 40 -20z m-5169 -8 c3 -21 1 -23 -22 -17 -31 8 -32 6
-6 -16 19 -17 20 -16 44 23 13 23 26 37 29 32 3 -5 -5 -28 -19 -51 l-25 -41
-34 20 c-38 23 -41 30 -24 60 15 28 53 21 57 -10z m52 -46 c-24 -38 -48 -49
-29 -12 25 46 43 69 47 58 2 -6 -6 -27 -18 -46z m58 -20 c1 -11 -3 -29 -11
-39 -11 -15 -17 -17 -35 -7 -25 13 -29 39 -7 47 8 4 12 11 9 16 -4 6 4 8 17 6
15 -2 25 -11 27 -23z m53 -21 c17 -15 17 -19 3 -45 -8 -16 -19 -29 -25 -29 -5
0 -3 13 5 29 21 39 7 48 -21 14 -26 -32 -31 -15 -7 22 19 29 22 30 45 9z m76
-50 c9 -24 -11 -38 -36 -25 -25 14 -28 3 -3 -15 16 -12 16 -13 0 -14 -23 0
-39 30 -27 52 12 22 57 24 66 2z m62 -52 c-32 -54 -34 -55 -59 -34 -24 19 -24
20 -6 47 14 21 23 25 42 21 14 -4 24 -2 24 4 0 6 5 8 10 5 7 -4 3 -20 -11 -43z
m-7283 6 c-6 -31 -6 -31 14 -13 33 30 44 5 14 -30 -14 -17 -23 -23 -21 -14 4
13 1 15 -14 12 -10 -3 -19 0 -19 6 0 6 -3 10 -7 8 -13 -4 -11 17 5 41 21 32
36 28 28 -10z m6522 -10 c19 -19 14 -30 -7 -18 -32 17 -38 11 -11 -10 14 -11
20 -20 14 -20 -6 0 -16 -12 -23 -26 -10 -23 -14 -24 -28 -13 -15 13 -15 12 -2
-9 12 -20 12 -24 -1 -32 -19 -12 -31 -8 -44 14 -9 13 -7 20 7 31 13 9 16 21
12 41 -3 16 -2 23 1 17 3 -7 12 -13 20 -13 9 0 12 5 9 10 -8 13 12 40 29 40 7
0 17 -5 24 -12z m816 -20 c8 -13 6 -22 -8 -37 -23 -25 -26 -25 -51 -7 -16 11
-17 17 -7 29 7 8 20 14 30 12 9 -1 11 0 5 2 -7 3 -13 9 -13 14 0 16 32 6 44
-13z"/>
<path d="M2755 3740 c3 -5 8 -10 11 -10 2 0 4 5 4 10 0 6 -5 10 -11 10 -5 0
-7 -4 -4 -10z"/>
<path d="M14243 3734 c-6 -13 -7 -24 -2 -24 12 0 31 38 21 44 -4 2 -12 -7 -19
-20z"/>
<path d="M14210 3729 c0 -5 5 -7 10 -4 6 3 10 8 10 11 0 2 -4 4 -10 4 -5 0
-10 -5 -10 -11z"/>
<path d="M14182 3668 c3 -7 13 -15 24 -17 16 -3 17 -1 5 13 -16 19 -34 21 -29
4z"/>
<path d="M5525 3640 c3 -5 8 -10 11 -10 2 0 4 5 4 10 0 6 -5 10 -11 10 -5 0
-7 -4 -4 -10z"/>
<path d="M2817 3716 c-3 -8 -3 -17 0 -20 7 -7 33 13 33 25 0 15 -27 10 -33 -5z"/>
<path d="M11160 3719 c0 -24 23 -21 28 4 2 10 -3 17 -12 17 -10 0 -16 -9 -16
-21z"/>
<path d="M12360 3664 c0 -8 5 -12 10 -9 6 3 10 10 10 16 0 5 -4 9 -10 9 -5 0
-10 -7 -10 -16z"/>
<path d="M11253 3675 c-3 -9 -3 -18 0 -21 9 -9 27 6 27 22 0 19 -19 18 -27 -1z"/>
<path d="M2883 3675 c-3 -9 -3 -18 0 -21 9 -9 27 6 27 22 0 19 -19 18 -27 -1z"/>
<path d="M7506 3585 c-3 -8 -1 -15 4 -15 6 0 10 7 10 15 0 8 -2 15 -4 15 -2 0
-6 -7 -10 -15z"/>
<path d="M14100 3546 c0 -15 24 -28 34 -19 7 7 -13 33 -25 33 -5 0 -9 -6 -9
-14z"/>
<path d="M8446 3431 c-4 -7 -5 -15 -2 -18 9 -9 19 4 14 18 -4 11 -6 11 -12 0z"/>
<path d="M7330 3309 c0 -5 5 -7 10 -4 6 3 10 8 10 11 0 2 -4 4 -10 4 -5 0 -10
-5 -10 -11z"/>
<path d="M7985 3310 c-3 -5 -1 -10 4 -10 6 0 11 5 11 10 0 6 -2 10 -4 10 -3 0
-8 -4 -11 -10z"/>
<path d="M7920 3261 c0 -5 7 -12 16 -15 22 -9 24 -8 24 9 0 8 -9 15 -20 15
-11 0 -20 -4 -20 -9z"/>
<path d="M360 3309 c0 -5 5 -7 10 -4 6 3 10 8 10 11 0 2 -4 4 -10 4 -5 0 -10
-5 -10 -11z"/>
<path d="M410 3281 c0 -12 28 -22 35 -12 3 5 -2 12 -11 15 -21 8 -24 8 -24 -3z"/>
<path d="M13930 3279 c0 -5 5 -7 10 -4 6 3 10 8 10 11 0 2 -4 4 -10 4 -5 0
-10 -5 -10 -11z"/>
<path d="M14135 3200 c-3 -5 -2 -10 4 -10 5 0 13 5 16 10 3 6 2 10 -4 10 -5 0
-13 -4 -16 -10z"/>
<path d="M2580 3240 c0 -5 5 -10 11 -10 5 0 7 5 4 10 -3 6 -8 10 -11 10 -2 0
-4 -4 -4 -10z"/>
<path d="M7885 3200 c-3 -5 -1 -10 4 -10 6 0 11 5 11 10 0 6 -2 10 -4 10 -3 0
-8 -4 -11 -10z"/>
<path d="M7911 3184 c0 -11 3 -14 6 -6 3 7 2 16 -1 19 -3 4 -6 -2 -5 -13z"/>
<path d="M2623 3195 c-3 -9 -3 -19 1 -22 8 -9 37 18 30 28 -8 14 -24 11 -31
-6z"/>
<path d="M2680 3140 c0 -5 5 -10 11 -10 5 0 7 5 4 10 -3 6 -8 10 -11 10 -2 0
-4 -4 -4 -10z"/>
<path d="M11730 3026 c0 -2 7 -6 15 -10 8 -3 15 -1 15 4 0 6 -7 10 -15 10 -8
0 -15 -2 -15 -4z"/>
<path d="M11686 2944 c-4 -10 -1 -14 6 -12 15 5 23 28 10 28 -5 0 -13 -7 -16
-16z"/>
<path d="M14310 3089 c0 -5 5 -7 10 -4 6 3 10 8 10 11 0 2 -4 4 -10 4 -5 0
-10 -5 -10 -11z"/>
<path d="M3865 3070 c-3 -5 -1 -10 4 -10 6 0 11 5 11 10 0 6 -2 10 -4 10 -3 0
-8 -4 -11 -10z"/>
<path d="M10135 3010 c-3 -5 1 -10 10 -10 9 0 13 5 10 10 -3 6 -8 10 -10 10
-2 0 -7 -4 -10 -10z"/>
<path d="M10230 2954 c0 -8 5 -12 10 -9 6 4 8 11 5 16 -9 14 -15 11 -15 -7z"/>
<path d="M4000 2960 c0 -5 5 -10 11 -10 5 0 7 5 4 10 -3 6 -8 10 -11 10 -2 0
-4 -4 -4 -10z"/>
<path d="M7734 2998 c-7 -12 21 -38 42 -38 20 0 27 19 14 35 -15 18 -46 20
-56 3z"/>
<path d="M1750 2940 c0 -5 5 -10 10 -10 6 0 10 5 10 10 0 6 -4 10 -10 10 -5 0
-10 -4 -10 -10z"/>
<path d="M11020 2881 c0 -5 5 -13 10 -16 6 -3 10 -2 10 4 0 5 -4 13 -10 16 -5
3 -10 2 -10 -4z"/>
<path d="M10875 2660 c3 -5 10 -10 16 -10 5 0 9 5 9 10 0 6 -7 10 -16 10 -8 0
-12 -4 -9 -10z"/>
<path d="M7195 2920 c-3 -5 -1 -10 4 -10 6 0 11 5 11 10 0 6 -2 10 -4 10 -3 0
-8 -4 -11 -10z"/>
<path d="M7385 2771 c-3 -5 -1 -12 4 -15 5 -3 11 1 15 9 6 16 -9 21 -19 6z"/>
<path d="M2115 2861 c-3 -5 -1 -12 5 -16 5 -3 10 1 10 9 0 18 -6 21 -15 7z"/>
<path d="M2265 2760 c-3 -5 1 -10 9 -10 9 0 16 5 16 10 0 6 -4 10 -9 10 -6 0
-13 -4 -16 -10z"/>
<path d="M2330 2720 c0 -5 5 -10 10 -10 6 0 10 5 10 10 0 6 -4 10 -10 10 -5 0
-10 -4 -10 -10z"/>
<path d="M4153 2865 c-3 -9 -3 -19 1 -22 7 -7 36 16 36 28 0 15 -30 10 -37 -6z"/>
<path d="M1690 2839 c0 -5 5 -7 10 -4 6 3 10 8 10 11 0 2 -4 4 -10 4 -5 0 -10
-5 -10 -11z"/>
<path d="M13101 2834 c0 -11 3 -14 6 -6 3 7 2 16 -1 19 -3 4 -6 -2 -5 -13z"/>
<path d="M12954 2827 c3 -10 6 -24 6 -30 0 -8 4 -7 12 1 10 10 8 16 -6 30 -18
16 -19 16 -12 -1z"/>
<path d="M4217 2834 c-14 -14 -7 -35 11 -32 9 2 17 10 17 17 0 16 -18 25 -28
15z"/>
<path d="M11585 2740 c-3 -5 -1 -10 4 -10 6 0 11 5 11 10 0 6 -2 10 -4 10 -3
0 -8 -4 -11 -10z"/>
<path d="M3015 2800 c3 -5 8 -10 11 -10 2 0 4 5 4 10 0 6 -5 10 -11 10 -5 0
-7 -4 -4 -10z"/>
<path d="M13770 2780 c0 -5 5 -10 11 -10 5 0 7 5 4 10 -3 6 -8 10 -11 10 -2 0
-4 -4 -4 -10z"/>
<path d="M13825 2750 c-3 -5 -1 -10 4 -10 6 0 11 5 11 10 0 6 -2 10 -4 10 -3
0 -8 -4 -11 -10z"/>
<path d="M10280 2780 c0 -5 7 -10 16 -10 8 0 12 5 9 10 -3 6 -10 10 -16 10 -5
0 -9 -4 -9 -10z"/>
<path d="M6557 2609 c-25 -15 -46 -68 -40 -101 13 -68 106 -97 157 -49 36 34
37 101 1 136 -26 27 -84 34 -118 14z"/>
<path d="M1556 2671 c-8 -12 21 -34 34 -26 8 5 8 11 -1 21 -13 16 -25 18 -33
5z"/>
<path d="M2920 2670 c0 -5 7 -10 16 -10 8 0 12 5 9 10 -3 6 -10 10 -16 10 -5
0 -9 -4 -9 -10z"/>
<path d="M2875 2630 c-3 -5 -1 -10 4 -10 6 0 11 5 11 10 0 6 -2 10 -4 10 -3 0
-8 -4 -11 -10z"/>
<path d="M10120 2530 c0 -5 5 -10 11 -10 5 0 7 5 4 10 -3 6 -8 10 -11 10 -2 0
-4 -4 -4 -10z"/>
<path d="M2818 2493 c7 -3 16 -2 19 1 4 3 -2 6 -13 5 -11 0 -14 -3 -6 -6z"/>
<path d="M2774 2445 c21 -16 32 -13 21 4 -3 6 -14 11 -23 11 -15 -1 -15 -2 2
-15z"/>
<path d="M1746 2431 c-4 -5 -2 -12 3 -15 5 -4 12 -2 15 3 4 5 2 12 -3 15 -5 4
-12 2 -15 -3z"/>
<path d="M3395 2350 c3 -5 8 -10 11 -10 2 0 4 5 4 10 0 6 -5 10 -11 10 -5 0
-7 -4 -4 -10z"/>
<path d="M10735 2450 c3 -5 8 -10 11 -10 2 0 4 5 4 10 0 6 -5 10 -11 10 -5 0
-7 -4 -4 -10z"/>
<path d="M3765 2470 c-3 -5 -1 -10 4 -10 6 0 11 5 11 10 0 6 -2 10 -4 10 -3 0
-8 -4 -11 -10z"/>
<path d="M10670 2401 c0 -10 30 -24 37 -17 3 2 -5 9 -16 16 -12 6 -21 7 -21 1z"/>
<path d="M1900 2319 c0 -5 5 -7 10 -4 6 3 10 8 10 11 0 2 -4 4 -10 4 -5 0 -10
-5 -10 -11z"/>
<path d="M2135 2171 c-3 -5 -1 -12 4 -15 5 -3 11 1 15 9 6 16 -9 21 -19 6z"/>
<path d="M7990 2361 c0 -11 31 -24 39 -16 3 3 -1 10 -9 15 -19 12 -30 12 -30
1z"/>
<path d="M630 2340 c0 -5 7 -10 16 -10 8 0 12 5 9 10 -3 6 -10 10 -16 10 -5 0
-9 -4 -9 -10z"/>
<path d="M3975 2300 c3 -5 11 -10 16 -10 6 0 7 5 4 10 -3 6 -11 10 -16 10 -6
0 -7 -4 -4 -10z"/>
<path d="M1335 2270 c-3 -5 -1 -10 4 -10 6 0 11 5 11 10 0 6 -2 10 -4 10 -3 0
-8 -4 -11 -10z"/>
<path d="M13460 2269 c0 -5 5 -7 10 -4 6 3 10 8 10 11 0 2 -4 4 -10 4 -5 0
-10 -5 -10 -11z"/>
<path d="M13300 2250 c0 -5 5 -10 10 -10 6 0 10 5 10 10 0 6 -4 10 -10 10 -5
0 -10 -4 -10 -10z"/>
<path d="M4157 2195 c-8 -19 13 -31 24 -14 13 20 11 29 -5 29 -8 0 -16 -7 -19
-15z"/>
<path d="M9436 2131 c-4 -7 -5 -15 -2 -18 9 -9 19 4 14 18 -4 11 -6 11 -12 0z"/>
<path d="M2220 2140 c0 -5 5 -10 10 -10 6 0 10 5 10 10 0 6 -4 10 -10 10 -5 0
-10 -4 -10 -10z"/>
<path d="M2260 2084 c0 -8 5 -12 10 -9 6 3 10 10 10 16 0 5 -4 9 -10 9 -5 0
-10 -7 -10 -16z"/>
<path d="M2310 2055 c0 -9 9 -15 21 -15 18 0 19 2 5 15 -8 8 -17 15 -20 15 -3
0 -6 -7 -6 -15z"/>
<path d="M13150 2059 c0 -5 5 -7 10 -4 6 3 10 8 10 11 0 2 -4 4 -10 4 -5 0
-10 -5 -10 -11z"/>
<path d="M460 2060 c0 -5 5 -10 11 -10 5 0 7 5 4 10 -3 6 -8 10 -11 10 -2 0
-4 -4 -4 -10z"/>
<path d="M13693 2105 c-3 -9 -3 -18 0 -22 10 -10 37 6 37 22 0 20 -29 20 -37
0z"/>
<path d="M1320 2060 c0 -5 5 -10 10 -10 6 0 10 5 10 10 0 6 -4 10 -10 10 -5 0
-10 -4 -10 -10z"/>
<path d="M13787 2053 c-4 -3 -7 -12 -7 -20 0 -17 26 -17 33 1 8 21 -11 35 -26
19z"/>
<path d="M13112 1998 c3 -7 13 -15 22 -16 12 -3 17 1 14 10 -3 7 -13 15 -22
16 -12 3 -17 -1 -14 -10z"/>
<path d="M1360 2004 c0 -8 5 -12 10 -9 6 3 10 10 10 16 0 5 -4 9 -10 9 -5 0
-10 -7 -10 -16z"/>
<path d="M10390 1940 c0 -5 5 -10 10 -10 6 0 10 5 10 10 0 6 -4 10 -10 10 -5
0 -10 -4 -10 -10z"/>
<path d="M10285 1770 c3 -5 11 -10 16 -10 6 0 7 5 4 10 -3 6 -11 10 -16 10 -6
0 -7 -4 -4 -10z"/>
<path d="M10255 1720 c3 -5 11 -10 16 -10 6 0 7 5 4 10 -3 6 -11 10 -16 10 -6
0 -7 -4 -4 -10z"/>
<path d="M1125 1990 c3 -5 8 -10 11 -10 2 0 4 5 4 10 0 6 -5 10 -11 10 -5 0
-7 -4 -4 -10z"/>
<path d="M1410 1975 c0 -8 2 -15 4 -15 2 0 6 7 10 15 3 8 1 15 -4 15 -6 0 -10
-7 -10 -15z"/>
<path d="M1510 1909 c0 -5 5 -7 10 -4 6 3 10 8 10 11 0 2 -4 4 -10 4 -5 0 -10
-5 -10 -11z"/>
<path d="M3550 1930 c0 -5 5 -10 10 -10 6 0 10 5 10 10 0 6 -4 10 -10 10 -5 0
-10 -4 -10 -10z"/>
<path d="M3677 1853 c-4 -3 -7 -11 -7 -17 0 -6 5 -5 12 2 6 6 9 14 7 17 -3 3
-9 2 -12 -2z"/>
<path d="M10755 1960 c-4 -7 -2 -16 6 -21 18 -11 23 -4 11 17 -7 12 -11 13
-17 4z"/>
<path d="M10796 1925 c-3 -8 -1 -15 4 -15 6 0 10 7 10 15 0 8 -2 15 -4 15 -2
0 -6 -7 -10 -15z"/>
<path d="M13543 1574 c-16 -16 -17 -34 -3 -34 6 0 13 -1 17 -2 9 -4 14 40 5
45 -4 3 -13 -1 -19 -9z"/>
<path d="M4330 1750 c0 -5 5 -10 10 -10 6 0 10 5 10 10 0 6 -4 10 -10 10 -5 0
-10 -4 -10 -10z"/>
<path d="M3760 1790 c0 -5 5 -10 10 -10 6 0 10 5 10 10 0 6 -4 10 -10 10 -5 0
-10 -4 -10 -10z"/>
<path d="M13000 1821 c0 -5 6 -14 14 -20 16 -13 32 2 21 19 -8 12 -35 13 -35
1z"/>
<path d="M1730 1800 c0 -5 5 -10 11 -10 5 0 7 5 4 10 -3 6 -8 10 -11 10 -2 0
-4 -4 -4 -10z"/>
<path d="M14265 1740 c3 -5 8 -10 11 -10 2 0 4 5 4 10 0 6 -5 10 -11 10 -5 0
-7 -4 -4 -10z"/>
<path d="M12920 1696 c0 -18 27 -29 36 -14 4 5 0 14 -7 19 -20 13 -29 11 -29
-5z"/>
<path d="M7195 1570 c-3 -5 -1 -10 4 -10 6 0 11 5 11 10 0 6 -2 10 -4 10 -3 0
-8 -4 -11 -10z"/>
<path d="M1020 1590 c0 -5 5 -10 11 -10 5 0 7 5 4 10 -3 6 -8 10 -11 10 -2 0
-4 -4 -4 -10z"/>
<path d="M4890 1590 c0 -5 5 -10 11 -10 5 0 7 5 4 10 -3 6 -8 10 -11 10 -2 0
-4 -4 -4 -10z"/>
<path d="M4761 1421 c-7 -5 -10 -14 -7 -20 11 -18 33 -13 39 9 5 21 -8 26 -32
11z"/>
<path d="M14210 1540 c0 -5 5 -10 11 -10 5 0 7 5 4 10 -3 6 -8 10 -11 10 -2 0
-4 -4 -4 -10z"/>
<path d="M14145 1480 c-3 -5 -1 -10 4 -10 6 0 11 5 11 10 0 6 -2 10 -4 10 -3
0 -8 -4 -11 -10z"/>
<path d="M10120 1510 c0 -5 5 -10 11 -10 5 0 7 5 4 10 -3 6 -8 10 -11 10 -2 0
-4 -4 -4 -10z"/>
<path d="M6307 1493 c-4 -3 -7 -11 -7 -17 0 -6 5 -5 12 2 6 6 9 14 7 17 -3 3
-9 2 -12 -2z"/>
<path d="M800 1449 c0 -5 5 -7 10 -4 6 3 10 8 10 11 0 2 -4 4 -10 4 -5 0 -10
-5 -10 -11z"/>
<path d="M10060 1450 c0 -12 28 -25 36 -17 3 3 -4 10 -15 17 -15 7 -21 7 -21
0z"/>
<path d="M6450 1400 c0 -5 5 -10 11 -10 5 0 7 5 4 10 -3 6 -8 10 -11 10 -2 0
-4 -4 -4 -10z"/>
<path d="M12750 1430 c0 -5 5 -10 10 -10 6 0 10 5 10 10 0 6 -4 10 -10 10 -5
0 -10 -4 -10 -10z"/>
<path d="M2110 1390 c0 -5 5 -10 10 -10 6 0 10 5 10 10 0 6 -4 10 -10 10 -5 0
-10 -4 -10 -10z"/>
<path d="M2025 1250 c3 -5 11 -10 16 -10 6 0 7 5 4 10 -3 6 -11 10 -16 10 -6
0 -7 -4 -4 -10z"/>
<path d="M741 1354 c0 -11 3 -14 6 -6 3 7 2 16 -1 19 -3 4 -6 -2 -5 -13z"/>
<path d="M9370 1370 c0 -5 5 -10 11 -10 5 0 7 5 4 10 -3 6 -8 10 -11 10 -2 0
-4 -4 -4 -10z"/>
<path d="M6550 1340 c0 -5 5 -10 11 -10 5 0 7 5 4 10 -3 6 -8 10 -11 10 -2 0
-4 -4 -4 -10z"/>
<path d="M6538 1313 c7 -3 16 -2 19 1 4 3 -2 6 -13 5 -11 0 -14 -3 -6 -6z"/>
<path d="M6603 1295 c-3 -9 -3 -18 0 -21 9 -9 27 6 27 22 0 19 -19 18 -27 -1z"/>
<path d="M5318 1233 c7 -3 16 -2 19 1 4 3 -2 6 -13 5 -11 0 -14 -3 -6 -6z"/>
<path d="M13900 1260 c0 -5 5 -10 11 -10 5 0 7 5 4 10 -3 6 -8 10 -11 10 -2 0
-4 -4 -4 -10z"/>
<path d="M13980 1210 c0 -5 5 -10 10 -10 6 0 10 5 10 10 0 6 -4 10 -10 10 -5
0 -10 -4 -10 -10z"/>
<path d="M6667 1263 c-4 -3 -7 -12 -7 -20 0 -17 26 -17 33 1 8 21 -11 35 -26
19z"/>
<path d="M602 1174 c9 -9 21 -13 27 -9 16 10 3 25 -22 25 -20 0 -20 -1 -5 -16z"/>
<path d="M7960 1230 c0 -5 5 -10 11 -10 5 0 7 5 4 10 -3 6 -8 10 -11 10 -2 0
-4 -4 -4 -10z"/>
<path d="M7925 1180 c3 -5 11 -10 16 -10 6 0 7 5 4 10 -3 6 -11 10 -16 10 -6
0 -7 -4 -4 -10z"/>
<path d="M13070 1124 c0 -8 5 -12 10 -9 6 3 10 10 10 16 0 5 -4 9 -10 9 -5 0
-10 -7 -10 -16z"/>
<path d="M6595 1110 c-3 -5 -1 -10 4 -10 6 0 11 5 11 10 0 6 -2 10 -4 10 -3 0
-8 -4 -11 -10z"/>
<path d="M9205 1120 c3 -5 11 -10 16 -10 6 0 7 5 4 10 -3 6 -11 10 -16 10 -6
0 -7 -4 -4 -10z"/>
<path d="M1915 1080 c3 -5 11 -10 16 -10 6 0 7 5 4 10 -3 6 -11 10 -16 10 -6
0 -7 -4 -4 -10z"/>
<path d="M1873 1033 c9 -9 19 -14 23 -11 10 10 -6 28 -24 28 -15 0 -15 -1 1
-17z"/>
<path d="M5190 1080 c0 -5 5 -10 11 -10 5 0 7 5 4 10 -3 6 -8 10 -11 10 -2 0
-4 -4 -4 -10z"/>
<path d="M10217 983 c-4 -3 -7 -11 -7 -17 0 -6 5 -5 12 2 6 6 9 14 7 17 -3 3
-9 2 -12 -2z"/>
<path d="M6530 1061 c0 -5 7 -12 16 -15 22 -9 24 -8 24 9 0 8 -9 15 -20 15
-11 0 -20 -4 -20 -9z"/>
<path d="M930 960 c0 -5 5 -10 10 -10 6 0 10 5 10 10 0 6 -4 10 -10 10 -5 0
-10 -4 -10 -10z"/>
<path d="M4120 894 c0 -8 5 -12 10 -9 6 3 10 10 10 16 0 5 -4 9 -10 9 -5 0
-10 -7 -10 -16z"/>
<path d="M7695 820 c3 -5 10 -10 16 -10 5 0 9 5 9 10 0 6 -7 10 -16 10 -8 0
-12 -4 -9 -10z"/>
<path d="M5791 904 c0 -11 3 -14 6 -6 3 7 2 16 -1 19 -3 4 -6 -2 -5 -13z"/>
<path d="M6440 869 c0 -5 5 -7 10 -4 6 3 10 8 10 11 0 2 -4 4 -10 4 -5 0 -10
-5 -10 -11z"/>
<path d="M4277 803 c-4 -3 -7 -11 -7 -17 0 -6 5 -5 12 2 6 6 9 14 7 17 -3 3
-9 2 -12 -2z"/>
<path d="M4510 640 c0 -5 5 -10 10 -10 6 0 10 5 10 10 0 6 -4 10 -10 10 -5 0
-10 -4 -10 -10z"/>
<path d="M6342 798 c3 -24 34 -36 50 -20 11 11 -16 42 -38 42 -10 0 -14 -8
-12 -22z"/>
<path d="M8477 783 c-14 -13 -6 -31 15 -36 29 -8 32 -3 16 22 -14 22 -20 25
-31 14z"/>
<path d="M8665 639 c-4 -6 -5 -12 -2 -15 2 -3 7 2 10 11 7 17 1 20 -8 4z"/>
<path d="M8690 630 c-6 -11 -8 -20 -6 -20 3 0 10 9 16 20 6 11 8 20 6 20 -3 0
-10 -9 -16 -20z"/>
<path d="M12670 721 c0 -5 7 -11 14 -14 10 -4 13 -1 9 9 -6 15 -23 19 -23 5z"/>
<path d="M12715 690 c-3 -5 -1 -10 4 -10 6 0 11 5 11 10 0 6 -2 10 -4 10 -3 0
-8 -4 -11 -10z"/>
<path d="M412 638 c-16 -16 -15 -28 3 -28 8 0 15 2 15 4 0 2 3 11 6 20 7 19
-7 21 -24 4z"/>
<path d="M4630 560 c0 -5 5 -10 10 -10 6 0 10 5 10 10 0 6 -4 10 -10 10 -5 0
-10 -4 -10 -10z"/>
<path d="M4680 531 c0 -5 7 -12 16 -15 24 -9 28 -7 14 9 -14 17 -30 20 -30 6z"/>
<path d="M3177 554 c-14 -14 -7 -25 13 -22 12 2 21 8 21 13 0 12 -24 18 -34 9z"/>
<path d="M3215 370 c-3 -5 1 -10 10 -10 9 0 13 5 10 10 -3 6 -8 10 -10 10 -2
0 -7 -4 -10 -10z"/>
<path d="M3220 310 c0 -5 4 -10 9 -10 6 0 13 5 16 10 3 6 -1 10 -9 10 -9 0
-16 -4 -16 -10z"/>
<path d="M6945 420 c-3 -5 -1 -10 4 -10 6 0 11 5 11 10 0 6 -2 10 -4 10 -3 0
-8 -4 -11 -10z"/>
<path d="M6775 372 c-10 -7 -18 -32 -10 -32 2 0 9 9 15 20 12 22 11 24 -5 12z"/>
<path d="M12310 299 c0 -5 5 -7 10 -4 6 3 10 8 10 11 0 2 -4 4 -10 4 -5 0 -10
-5 -10 -11z"/>
<path d="M12436 224 c-10 -25 1 -29 14 -5 6 12 7 21 1 21 -5 0 -12 -7 -15 -16z"/>
<path d="M7165 250 c3 -5 8 -10 11 -10 2 0 4 5 4 10 0 6 -5 10 -11 10 -5 0 -7
-4 -4 -10z"/>
<path d="M7346 154 c-8 -22 -8 -24 8 -24 12 0 26 20 26 36 0 12 -29 2 -34 -12z"/>
<path d="M7405 100 c3 -5 8 -10 11 -10 2 0 4 5 4 10 0 6 -5 10 -11 10 -5 0 -7
-4 -4 -10z"/>
<path d="M14308 3833 c7 -3 16 -2 19 1 4 3 -2 6 -13 5 -11 0 -14 -3 -6 -6z"/>
<path d="M8965 3819 c-4 -6 -5 -12 -2 -15 2 -3 7 2 10 11 7 17 1 20 -8 4z"/>
<path d="M2658 3803 c7 -3 16 -2 19 1 4 3 -2 6 -13 5 -11 0 -14 -3 -6 -6z"/>
<path d="M10250 3801 c0 -11 31 -24 39 -16 3 3 -1 10 -9 15 -19 12 -30 12 -30
1z"/>
<path d="M8903 3763 c9 -9 19 -14 23 -11 10 10 -6 28 -24 28 -15 0 -15 -1 1
-17z"/>
<path d="M140 3445 c0 -8 2 -15 4 -15 2 0 6 7 10 15 3 8 1 15 -4 15 -6 0 -10
-7 -10 -15z"/>
<path d="M235 3390 c-3 -5 -2 -10 4 -10 5 0 13 5 16 10 3 6 2 10 -4 10 -5 0
-13 -4 -16 -10z"/>
<path d="M128 2563 c7 -3 16 -2 19 1 4 3 -2 6 -13 5 -11 0 -14 -3 -6 -6z"/>
<path d="M101 2531 c-10 -6 -10 -10 -1 -16 13 -8 24 -1 19 14 -3 6 -10 7 -18
2z"/>
<path d="M14375 780 c3 -5 10 -10 16 -10 5 0 9 5 9 10 0 6 -7 10 -16 10 -8 0
-12 -4 -9 -10z"/>
<path d="M7235 70 c3 -5 11 -10 16 -10 6 0 7 5 4 10 -3 6 -11 10 -16 10 -6 0
-7 -4 -4 -10z"/>
<path d="M210 59 c0 -5 5 -7 10 -4 6 3 10 8 10 11 0 2 -4 4 -10 4 -5 0 -10 -5
-10 -11z"/>
<path d="M2365 30 c-3 -5 -1 -10 4 -10 6 0 11 5 11 10 0 6 -2 10 -4 10 -3 0
-8 -4 -11 -10z"/>
<path d="M7205 20 c3 -5 10 -10 16 -10 5 0 9 5 9 10 0 6 -7 10 -16 10 -8 0
-12 -4 -9 -10z"/>
</g>
</svg>
