<svg width="115" height="40" viewBox="0 0 115 40" fill="none" xmlns="http://www.w3.org/2000/svg">
<path d="M18.8871 10.579C20.5733 11.5064 21.8801 12.8132 22.8497 14.5416C23.8193 16.2278 24.283 18.2091 24.283 20.4433C24.283 22.6775 23.8193 24.6166 22.8497 26.345C21.8801 28.0734 20.5733 29.3802 18.8871 30.3076C17.2009 31.235 15.3039 31.6987 13.154 31.6987C10.2032 31.6987 7.84247 30.7291 6.11411 28.7478V39.4131H0.971191V9.48295H5.86118V12.3495C6.70428 11.2956 7.75816 10.5368 9.02281 9.98881C10.2875 9.48295 11.6364 9.18787 13.154 9.18787C15.3039 9.18787 17.2009 9.65157 18.8871 10.579ZM17.2431 25.4176C18.4656 24.1529 19.0557 22.5089 19.0557 20.4433C19.0557 18.3777 18.4656 16.7336 17.2431 15.469C16.0206 14.2043 14.4608 13.572 12.5638 13.572C11.3414 13.572 10.2032 13.8671 9.23359 14.4151C8.26402 14.9631 7.46308 15.7641 6.87291 16.8179C6.28274 17.8718 6.02981 19.0522 6.02981 20.4433C6.02981 21.8344 6.32489 23.0147 6.87291 24.0686C7.46308 25.1225 8.22187 25.9234 9.23359 26.4715C10.2032 27.0195 11.3414 27.3146 12.5638 27.3146C14.4608 27.3146 16.0206 26.6822 17.2431 25.4176Z" fill="white"/>
<!-- <path d="M31.1118 29.8437C29.8472 28.5791 29.2148 26.8507 29.2148 24.5744V0.883179H34.3578V24.1528C34.3578 26.3449 35.3695 27.4409 37.4351 27.4409C38.1096 27.4409 38.7419 27.3144 39.2899 27.0194L39.5428 31.1506C38.5733 31.4878 37.5616 31.6986 36.4655 31.6986C34.147 31.6986 32.3765 31.0662 31.1118 29.8437Z" fill="white"/> -->
<path d="M64.0772 9.44063V31.4035H59.1872V28.5791C58.3441 29.6329 57.2902 30.3917 56.0255 30.9397C54.7609 31.4456 53.4119 31.7407 51.8943 31.7407C49.7444 31.7407 47.8474 31.277 46.1612 30.3496C44.475 29.4222 43.1682 28.1154 42.1987 26.387C41.2712 24.7008 40.7654 22.7195 40.7654 20.4431C40.7654 18.2089 41.2291 16.2276 42.1987 14.5414C43.1261 12.8552 44.475 11.5484 46.1612 10.621C47.8474 9.69357 49.7444 9.22986 51.8943 9.22986C53.3276 9.22986 54.6344 9.48279 55.8148 9.98865C56.9951 10.4945 58.049 11.2111 58.9342 12.1807V9.52494H64.0772V9.44063ZM57.1637 25.4174C58.3862 24.1528 59.0185 22.5087 59.0185 20.4431C59.0185 18.3775 58.3862 16.7335 57.1637 15.4688C55.9412 14.2042 54.3815 13.5718 52.4845 13.5718C50.5875 13.5718 49.0278 14.2042 47.8053 15.4688C46.5828 16.7335 45.9926 18.3775 45.9926 20.4431C45.9926 22.5087 46.5828 24.1528 47.8053 25.4174C49.0278 26.6821 50.5875 27.3144 52.4845 27.3144C54.3815 27.3144 55.9412 26.6821 57.1637 25.4174Z" fill="white"/>
<path d="M74.7848 30.2654C72.9721 29.2959 71.581 27.989 70.5271 26.2607C69.5154 24.5323 69.0095 22.5932 69.0095 20.4433C69.0095 18.2934 69.5154 16.3542 70.5271 14.6259C71.5388 12.9397 72.9299 11.5907 74.7426 10.6211C76.5553 9.65157 78.5787 9.18787 80.8973 9.18787C83.0472 9.18787 84.9441 9.60942 86.5882 10.4947C88.2322 11.3799 89.4548 12.6446 90.2557 14.2886L86.2931 16.6072C85.6608 15.5954 84.8598 14.8367 83.9324 14.3308C83.005 13.8249 81.9511 13.572 80.813 13.572C78.8738 13.572 77.3141 14.2043 76.0494 15.4268C74.7848 16.6915 74.1524 18.3355 74.1524 20.4433C74.1524 22.5089 74.7848 24.1951 76.0073 25.4597C77.2719 26.7244 78.8317 27.3146 80.813 27.3146C81.9511 27.3146 82.9629 27.0616 83.9324 26.5558C84.8598 26.0499 85.6608 25.2911 86.2931 24.2794L90.2557 26.5979C89.4126 28.242 88.1479 29.5066 86.546 30.3919C84.902 31.2771 83.0472 31.7409 80.8973 31.7409C78.6209 31.6987 76.5974 31.235 74.7848 30.2654Z" fill="white"/>
<path d="M110.827 24.9539L113.525 28.1155C112.555 29.2959 111.333 30.1811 109.815 30.7713C108.298 31.3615 106.611 31.6565 104.714 31.6565C102.312 31.6565 100.162 31.1928 98.349 30.2233C96.4941 29.2537 95.103 27.9469 94.0913 26.2185C93.0796 24.4902 92.5737 22.551 92.5737 20.4011C92.5737 18.2512 93.0796 16.3542 94.0492 14.6259C95.0187 12.8975 96.3677 11.5907 98.0961 10.6211C99.8244 9.65157 101.764 9.18787 103.913 9.18787C105.979 9.18787 107.834 9.65157 109.52 10.5368C111.206 11.4221 112.555 12.6867 113.525 14.3729C114.494 16.017 115 17.9561 115 20.1904L98.1804 23.4785C98.6862 24.7431 99.5293 25.7127 100.71 26.345C101.848 27.0195 103.239 27.3146 104.883 27.3146C107.244 27.3567 109.225 26.5558 110.827 24.9539ZM99.3185 15.1739C98.1382 16.3964 97.5902 18.0826 97.5902 20.1482V20.1904L110.026 17.7875C109.689 16.4385 108.93 15.3425 107.876 14.5416C106.78 13.6985 105.473 13.3191 103.956 13.3191C102.016 13.3191 100.457 13.9514 99.3185 15.1739Z" fill="white"/>
</svg>
