<svg width="86" height="68" viewBox="0 0 86 68" fill="none" xmlns="http://www.w3.org/2000/svg">
<path d="M37.3802 19.8309V25.6939C36.8748 25.5929 36.3694 25.5423 35.965 25.5423C33.5895 25.5423 31.6689 26.2499 30.3547 27.6146C28.9901 29.0298 28.333 31.001 28.333 33.6798V46.4672H22.1667V20.1342H28.0298V23.9755C29.7988 21.2461 32.9324 19.8309 37.3802 19.8309Z" fill="white"/>
<path d="M62.0449 38.7339L65.2796 42.5247C64.1171 43.9399 62.6514 45.0013 60.8318 45.7089C59.0123 46.4165 56.9905 46.7703 54.7161 46.7703C51.8351 46.7703 49.2574 46.2143 47.0841 45.0518C44.9107 43.9399 43.1923 42.3225 41.9792 40.3008C40.7662 38.2285 40.1597 35.9035 40.1597 33.3258C40.1597 30.7481 40.7662 28.4737 41.9287 26.4014C43.0912 24.3291 44.7086 22.7623 46.7808 21.5998C48.8531 20.4373 51.1781 19.8813 53.7558 19.8813C56.2324 19.8813 58.4563 20.4373 60.478 21.4987C62.4997 22.5601 64.1171 24.0764 65.2796 26.0982C66.4421 28.0693 67.0486 30.3943 67.0486 33.0731L46.8819 37.0155C47.4884 38.5318 48.4993 39.6943 49.9145 40.4524C51.2792 41.2611 52.9471 41.6149 54.9183 41.6149C57.7487 41.6149 60.1242 40.6546 62.0449 38.7339ZM48.2466 27.0079C46.8314 28.4737 46.1743 30.4954 46.1743 32.972V33.0226L61.0845 30.1416C60.6802 28.5242 59.7704 27.2101 58.5068 26.2498C57.1927 25.2389 55.6259 24.784 53.8063 24.784C51.4813 24.784 49.6618 25.5422 48.2466 27.0079Z" fill="white"/>
<path d="M52.1895 61.2762L59.316 60.7202L66.4426 60.2147C68.8182 60.0126 71.1937 59.9115 73.5692 59.7093L80.6958 59.2544L78.1686 61.7816L77.3599 47.8822L76.7029 33.9829C76.5007 29.3329 76.0964 24.7335 75.7426 20.0835C75.4393 15.4335 75.3888 10.8341 75.6415 6.18412L80.6958 11.2384L77.1072 10.9857L73.5187 10.6825C71.1431 10.4297 68.7676 10.177 66.3921 9.77268C64.0166 9.41888 61.641 9.01453 59.2655 8.5091C56.89 8.00367 54.5144 7.4477 52.1389 6.68955V5.67869C54.5144 4.92054 56.89 4.36456 59.2655 3.85913C61.641 3.3537 64.0166 2.94936 66.3921 2.59555C68.7676 2.24175 71.1431 1.93849 73.5187 1.68578L77.1072 1.38252L80.6958 1.1298L85.4468 0.776001L85.8007 6.18412C86.1039 10.8341 86.0534 15.4335 85.6996 20.0835C85.3963 24.7335 84.9414 29.3329 84.7393 33.9829L84.0822 47.8822L83.2735 61.7816L83.1219 64.5109L80.7463 64.3593L73.6198 63.9044C71.2442 63.7528 68.8687 63.6011 66.4932 63.399L59.3666 62.8935L52.24 62.3376V61.2762H52.1895Z" fill="#6E40C9"/>
<path d="M34.7522 6.79068L27.6256 7.34665L20.499 7.85208C18.1235 8.05425 15.748 8.15534 13.3725 8.35751L6.24588 8.8124L8.77304 6.28524L9.58173 20.1846L10.2388 34.084C10.441 38.7339 10.8453 43.3334 11.1991 47.9833C11.5024 52.6333 11.5529 57.2327 11.3002 61.8827L6.24588 56.8284L9.83444 57.0811L13.423 57.3844C15.7985 57.6371 18.1741 57.8898 20.5496 58.2941C22.9251 58.6479 25.3006 59.0523 27.6762 59.5577C30.0517 60.0632 32.4272 60.6191 34.8028 61.3773V62.3881C32.4272 63.1463 30.0517 63.7023 27.6762 64.2077C25.3006 64.7131 22.9251 65.1175 20.5496 65.4713C18.1741 65.8251 15.7985 66.1283 13.423 66.3811L9.83444 66.6843L6.24588 66.937L1.49482 67.2908L1.14102 61.8827C0.837761 57.2327 0.888304 52.6333 1.24211 47.9833C1.54537 43.2828 1.94971 38.6834 2.15188 34.0334L2.80894 20.1341L3.61763 6.2347L3.76926 3.50537L6.14479 3.657L13.2714 4.11189C15.6469 4.26352 18.0224 4.41515 20.398 4.61732L27.5245 5.12275L34.6511 5.67873V6.79068H34.7522Z" fill="#6E40C9"/>
</svg>
